<?xml version="1.0" standalone="no"?>
<!DOCTYPE svg PUBLIC "-//W3C//DTD SVG 1.1//EN" "http://www.w3.org/Graphics/SVG/1.1/DTD/svg11.dtd" >
<svg xmlns="http://www.w3.org/2000/svg" xmlns:xlink="http://www.w3.org/1999/xlink" version="1.1">
<metadata></metadata>
<defs>
<font id="queen_of_camelotregular" horiz-adv-x="1417" >
<font-face units-per-em="2048" ascent="1638" descent="-410" />
<missing-glyph horiz-adv-x="356" />
<glyph unicode="&#xd;" horiz-adv-x="508" />
<glyph horiz-adv-x="2600" />
<glyph horiz-adv-x="2600" />
<glyph unicode=" "  horiz-adv-x="356" />
<glyph unicode="&#x09;" horiz-adv-x="356" />
<glyph unicode="&#xa0;" horiz-adv-x="356" />
<glyph unicode="!" horiz-adv-x="504" d="M0 1h315v302h-315v-302zM0 398v999h318v-999h-318z" />
<glyph unicode="&#x22;" horiz-adv-x="863" d="M0 898v499h315v-499h-315zM402 898v499h315v-499h-315z" />
<glyph unicode="#" horiz-adv-x="1004" d="M0 452l28 159h123l41 238h-123l28 159h123l83 470h159l-83 -470h208l83 470h159l-83 -470h108l-28 -159h-108l-41 -238h108l-28 -159h-108l-80 -460h-159l80 460h-208l-80 -460h-159l80 460h-123zM310 611h208l41 238h-208z" />
<glyph unicode="$" horiz-adv-x="1126" d="M1 943q-1 89 41 167q42 79 118 129q65 43 189 61v98h307v-88h214v-292h-482q-85 -5 -85 -64q0 -56 65 -72l385 -86q203 -51 210 -269q13 -103 -28.5 -206t-124.5 -158q-70 -47 -140 -62q-16 -2 -14 -2v-100h-307v96h-277v295h435q108 0 134.5 17t26.5 55q0 53 -47 64 l-316 60q-79 18 -133 53q-79 49 -125 130q-45 81 -46 174z" />
<glyph unicode="%" horiz-adv-x="1442" d="M0 1077q0 113 79.5 192.5t191.5 79.5q113 0 192.5 -79.5t79.5 -192.5q0 -112 -79.5 -191.5t-192.5 -79.5q-112 0 -191.5 79.5t-79.5 191.5zM163 1077q0 -45 31.5 -76.5t76.5 -31.5q46 0 77.5 31.5t31.5 76.5t-31.5 77t-77.5 32q-45 0 -76.5 -32t-31.5 -77zM259 253 l550 1090h213l-546 -1090h-217zM749 524q0 113 79.5 192.5t191.5 79.5q113 0 192.5 -79.5t79.5 -192.5q0 -112 -79.5 -191.5t-192.5 -79.5q-112 0 -191.5 79.5t-79.5 191.5zM912 524q0 -45 31.5 -76.5t76.5 -31.5q46 0 77.5 31.5t31.5 76.5t-31.5 77t-77.5 32 q-45 0 -76.5 -32t-31.5 -77z" />
<glyph unicode="&#x26;" horiz-adv-x="1159" d="M0 438q0 76 20 144.5t60 120.5q-37 53 -56.5 124.5t-19.5 145.5q0 172 86 293q95 135 256 135h340v-303h-293q-46 0 -74 -40q-25 -36 -25 -87t24 -85q28 -38 75 -38h616v-295h-112v-554h-551q-160 5 -258 143q-88 122 -88 296zM294 430q0 -51 24 -88q28 -39 75 -39h187 v250h-187q-47 0 -75 -38q-24 -35 -24 -85z" />
<glyph unicode="'" horiz-adv-x="465" d="M0 898v499h315v-499h-315z" />
<glyph unicode="(" horiz-adv-x="709" d="M0 695q0 264 92.5 519t224.5 444h260q-132 -189 -224.5 -444t-92.5 -519q0 -198 80 -473t233 -486h-260q-153 211 -233 486t-80 473z" />
<glyph unicode=")" horiz-adv-x="709" d="M0 1658h260q132 -189 224.5 -444t92.5 -519q0 -198 -80 -473t-233 -486h-260q153 211 233 486t80 473q0 264 -92.5 519t-224.5 444z" />
<glyph unicode="*" horiz-adv-x="547" d="M0 1620v68l143 42l-143 42v68l134 -39l-38 124h68l40 -139l44 139h69l-42 -124l122 38v-68l-143 -41l143 -43v-69l-122 41l38 -137h-69l-40 143l-44 -143h-68l42 137z" />
<glyph unicode="+" horiz-adv-x="896" d="M0 550v298h224v224h298v-224h224v-298h-224v-224h-298v224h-224z" />
<glyph unicode="," horiz-adv-x="465" d="M0 1v302h315v-302l-196 -180l-43 69l73 111h-149z" />
<glyph unicode="-" horiz-adv-x="744" d="M0 550v298h594v-298h-594z" />
<glyph unicode="." horiz-adv-x="465" d="M0 1v302h315v-302h-315z" />
<glyph unicode="/" horiz-adv-x="865" d="M0 -262l456 1917h259l-462 -1917h-253z" />
<glyph unicode="0" horiz-adv-x="1381" d="M0 686q0 211 62 355q47 106 128 190t177 125q128 54 247 54q254 0 435.5 -190t181.5 -527q0 -335 -180 -524t-433 -189q-258 0 -438 188t-180 518zM339 681q0 -196 90 -297.5t180 -101.5q91 0 179.5 100.5t88.5 302.5q0 198 -86.5 296.5t-181.5 98.5t-182.5 -99.5 t-87.5 -299.5z" />
<glyph unicode="1" horiz-adv-x="587" d="M0 1096h123v-1096h314v1178q0 222 -214 222l-5 2h-218v-306zM224 5z" />
<glyph unicode="2" horiz-adv-x="1208" d="M0 -8v353q0 273 221 381l450 261q57 33 57 62q0 51 -57 52h-603v299h722q124 0 200 -104q68 -94 68 -233q0 -257 -218 -364l-413 -222q-66 -70 -67 -183h645v-300h-763z" />
<glyph unicode="3" horiz-adv-x="1113" d="M0 0v303h570q46 0 74 40q25 36 25 87t-24 85q-28 38 -75 38h-501v295h501q47 0 75 38q24 35 24 85q0 51 -24 88q-28 39 -75 39h-570v299h617q160 0 258 -138q88 -122 88 -296q0 -76 -20 -144.5t-60 -120.5q37 -53 56.5 -124.5t19.5 -145.5q0 -172 -86 -293 q-95 -135 -256 -135h-617z" />
<glyph unicode="4" horiz-adv-x="1248" d="M0 560q0 116 65 213l283 435q61 93 158 143q90 46 189 46h403v-1397h-290v248h-516q-130 0 -213 94q-79 88 -79 218zM337 621q0 -31 22 -53.5t61 -22.5h388v547h-113q-32 0 -63.5 -22t-55.5 -59l-228 -352q-11 -17 -11 -38z" />
<glyph unicode="5" horiz-adv-x="1109" d="M0 0v303h570q46 0 74 40q25 36 25 87t-24 85q-28 38 -75 38h-570v844h880v-299h-581v-250h318q342 -8 342 -420q0 -172 -86 -293q-95 -135 -256 -135h-617z" />
<glyph unicode="6" horiz-adv-x="1348" d="M0 521q0 162 174 441l271 435h329l-223 -354q31 1 63 0q272 -8 428 -154.5t156 -397.5q0 -250 -177 -386t-447 -128q-274 9 -424 153.5t-150 390.5zM357 518q-6 -121 62 -186.5t176 -68.5q110 -3 182.5 58t77.5 185q6 124 -59.5 186.5t-178.5 66.5q-112 3 -183.5 -56.5 t-76.5 -184.5z" />
<glyph unicode="7" horiz-adv-x="1145" d="M0 1102h580l-458 -1102h334l478 1105q61 150 18 222t-126 72h-826v-297z" />
<glyph unicode="8" horiz-adv-x="1266" d="M0 983q0 -75 20 -145q20 -68 60 -140q-37 -74 -56 -144q-20 -71 -20 -146q0 -172 86 -293q95 -135 256 -135h424q161 0 256 135q86 121 86 293q0 75 -20 146q-19 70 -56 144q40 72 60 140q20 70 20 145q0 174 -88 296q-98 138 -258 138h-424q-160 0 -258 -138 q-88 -122 -88 -296zM294 410q0 51 24 85q28 38 75 38h330q47 0 75 -38q24 -34 24 -85t-25 -87q-28 -40 -74 -40h-330q-46 0 -74 40q-25 36 -25 87zM294 991q0 51 24 88q28 39 75 39h330q47 0 75 -39q24 -37 24 -88q0 -50 -24 -85q-28 -38 -75 -38h-330q-47 0 -75 38 q-24 35 -24 85z" />
<glyph unicode="9" horiz-adv-x="1348" d="M0 905q0 251 177 386.5t447 128.5q274 -9 424 -154t150 -390q0 -163 -174 -441l-271 -435h-329l223 354q-31 -1 -63 0q-272 7 -428 154t-156 397zM343 890q-6 -123 59.5 -186t178.5 -66q112 -3 183 56.5t76 183.5q6 122 -62 187.5t-176 68.5q-109 2 -181.5 -58.5 t-77.5 -185.5z" />
<glyph unicode=":" horiz-adv-x="465" d="M0 1v302h315v-302h-315zM0 693v302h315v-302h-315z" />
<glyph unicode=";" horiz-adv-x="465" d="M0 1v302h315v-302l-196 -180l-43 69l73 111h-149zM0 693v302h315v-302h-315z" />
<glyph unicode="&#x3c;" horiz-adv-x="1219" d="M0 723q0 55 35 94q13 15 67 45l967 419v-285l-701 -268l701 -278v-283l-969 422q-52 26 -65 41q-35 38 -35 93z" />
<glyph unicode="=" horiz-adv-x="864" d="M0 351v259h714v-259h-714zM0 795v258h714v-258h-714z" />
<glyph unicode="&#x3e;" horiz-adv-x="1219" d="M0 167v283l701 278l-701 268v285l967 -419q54 -30 67 -45q35 -39 35 -94t-35 -93q-13 -15 -65 -41z" />
<glyph unicode="?" horiz-adv-x="1030" d="M0 1h315v302h-315v-302zM1 400v442h434q52 2 82 41q26 35 26 87q0 51 -26 88q-30 41 -82 41h-434v298h485q177 0 281 -134q94 -121 94 -294q0 -176 -93 -296q-104 -132 -282 -132h-179v-141h-306z" />
<glyph unicode="@" horiz-adv-x="953" d="M0 265v880q0 265 316 265h190q297 0 297 -227v-862h-223q-300 0 -300 265v196q0 265 268 265q35 0 65 -6v60q0 109 -107 109h-190q-126 0 -126 -109v-774q0 -127 109 -127h504v-200h-503q-300 0 -300 265zM470 648q0 -127 109 -127h34v217q0 104 -66 104q-77 0 -77 -104 v-90z" />
<glyph unicode="A" d="M0 1l495 1321q18 39 54 63q36 23 80 23q43 0 81 -23q38 -24 55 -63l502 -1322h-322l-81 209h-463l-80 -208h-321zM516 512h230l-116 297z" />
<glyph unicode="B" horiz-adv-x="1184" d="M0 0h750h15q58 0 113 21q76 29 116 117q28 61 28 117q0 25 -6 49q-15 65 -274 408l217 275q53 81 53 154q0 105 -31 150q-30 45 -83 71q-69 35 -172 35h-726v-1397zM311 300v798h360l-232 -285q-40 -60 -40 -105t40 -105l246 -303h-374z" />
<glyph unicode="C" horiz-adv-x="1174" d="M0 700q0 700 544 700h480v-302h-339h-4q-358 0 -358 -328v-150q0 -321 362 -321h339v-299h-480q-544 0 -544 700z" />
<glyph unicode="D" horiz-adv-x="1269" d="M0 0h624q495 1 495 697q0 701 -495 701l-624 -1v-1397zM315 304v797h261q214 0 214 -395q0 -402 -214 -402h-261z" />
<glyph unicode="E" horiz-adv-x="1088" d="M0 275v882q0 240 315 243h623v-301h-614v-251h515v-298h-515v-248h614v-302h-623q-315 0 -315 275z" />
<glyph unicode="F" horiz-adv-x="1088" d="M0 -1v1158q0 240 315 243h623v-301h-614v-251h515v-298h-515v-551h-324z" />
<glyph unicode="G" horiz-adv-x="1164" d="M0 700q0 700 544 700h470v-302h-329q-362 0 -362 -328v-150q0 -321 348 -321h26v379h317v-678h-470q-544 0 -544 700z" />
<glyph unicode="H" horiz-adv-x="1210" d="M0 0v1400h308v-558h444v558h308v-1400h-308v540h-444v-540h-308z" />
<glyph unicode="I" horiz-adv-x="467" d="M0 -5v1402h317v-1402h-317z" />
<glyph unicode="J" horiz-adv-x="884" d="M0 4l160 -2q176 0 285.5 44.5t174.5 118.5t89.5 182.5t24.5 369.5v683h-300v-691q0 -173 -13 -239t-78 -117t-192 -51l-151 -1v-297z" />
<glyph unicode="K" horiz-adv-x="1333" d="M0 0v1400h328v-1400h-328zM412 705q0 -50 21 -90l351 -615h386l-420 703l433 697h-391l-358 -604q-22 -40 -22 -91z" />
<glyph unicode="L" horiz-adv-x="1040" d="M0 273v1125h330l-1 -971q1 -127 118 -127h443v-300h-573h-5q-312 0 -312 273z" />
<glyph unicode="M" horiz-adv-x="1409" d="M0 0h310v646l184 -408q20 -37 58 -59t81 -22q45 0 82 22q38 22 57 60l177 395v-634h310v1261q0 51 -34 91t-86 51q-19 4 -41 4q-40 0 -91 -14q-49 -22 -72 -67l-302 -633l-309 641q-24 45 -73 67q-52 14 -92 14q-21 0 -39 -4q-53 -12 -86 -52q-34 -39 -34 -90v-1269z" />
<glyph unicode="N" horiz-adv-x="1241" d="M0 -1h314v745l494 -692q30 -41 78 -56q24 -8 48.5 -8t48.5 8q49 16 78 57q30 41 30 92v1253h-314v-733l-493 691q-31 41 -79 56q-24 8 -48.5 8t-48.5 -8q-48 -16 -78 -57q-30 -42 -30 -92v-1264z" />
<glyph unicode="O" horiz-adv-x="1377" d="M0 700q0 710 503 710h221q503 0 503 -710t-503 -710h-221q-503 0 -503 710zM323 610q0 -321 282 -321h17q282 0 282 321v170q0 326 -273 328h-35q-273 -2 -273 -328v-170z" />
<glyph unicode="P" horiz-adv-x="1185" d="M0 2v1398l662 -3h2q371 0 371 -422q0 -421 -373 -421h-354l-1 -552h-307zM309 849h234q177 0 177 126q0 123 -177 123l-234 1v-250z" />
<glyph unicode="Q" horiz-adv-x="1377" d="M0 700q0 710 503 710h221q503 0 503 -710q0 -47 -2 -92q-33 -593 -501 -617v-1h-120q2 -1 5 -3q10 -5 20 -12q12 -7 25 -14q64 -35 130 -43q10 -1 18 -1q10 -1 20 -1q58 0 117 20q59 19 107 53q3 3 5 4q4 3 7 5q4 4 8 7v-329q-4 -3 -8 -4q-3 -1 -7 -2q-2 -2 -5 -2 q-41 -14 -87 -25q-70 -16 -137 -16q-17 0 -34 1q-132 6 -254 71q-16 9 -32 17q-7 6 -15 9q-36 23 -70 37q-57 23 -108 23q-32 0 -62 -9q-23 -7 -43 -19q-5 -2 -10 -6q-2 -3 -5 -4h-1l-4 -4q-3 -2 -7 -5q-1 0 -1 -1q-1 -1 -4 -3l-1 -1q-1 -1 -3 -4l-2 -1q-1 -1 -2 -3 q-1 -1 -3 -2l1 329l2 1q1 1 2 1q2 0 2 1q2 0 3 2h1q3 0 5 1q1 1 3 1t4 1q3 0 5 2q3 1 5 1l10 2q17 4 33 7q-237 159 -237 628zM323 610q0 -321 282 -321h17q282 0 282 321v170q0 326 -273 328h-35q-273 -2 -273 -328v-170z" />
<glyph unicode="R" horiz-adv-x="1292" d="M0 1400l1 -1401h313l2 1110h374h5q48 1 67 -37q7 -14 7 -28q0 -26 -24 -52l-243 -301q-16 -25 -22 -45l-5 -27l2 -63l3 -4l18 -54l260 -497l384 -2l-320 553q-7 9 -7 22q0 52 110 162q138 138 140 308v7q0 166 -96.5 257.5t-247.5 91.5h-7h-714z" />
<glyph unicode="S" horiz-adv-x="1255" d="M50 790q48 -91 132 -147q57 -39 141 -60l355 -71q64 -18 64 -86q1 -10 1 -20q0 -54 -34 -78q-33 -24 -145 -24h-18h-465v-304l598 1q46 1 83 7q96 17 170 69q88 62 130 166q33 79 33 166q0 26 -3 54q-7 244 -218 324l-456 105q-64 22 -64 106q5 92 117 99h518v300h-504 h-7h-10l-30 -2q-41 -2 -81 -9q-117 -20 -188 -70q-80 -56 -125 -144q-43 -86 -43 -183q0 -107 49 -199z" />
<glyph unicode="T" horiz-adv-x="1110" d="M0 1097v303h960v-303h-309v-1098h-326v1098h-325z" />
<glyph unicode="U" horiz-adv-x="1265" d="M0 592v808h324v-808q0 -301 235 -301q234 0 234 301v808h322v-808q0 -612 -556 -612q-559 0 -559 612z" />
<glyph unicode="V" d="M0 1397l495 -1321q18 -39 54 -63q36 -23 80 -23q43 0 81 23q38 24 55 63l502 1322h-322l-315 -809l-309 808h-321z" />
<glyph unicode="W" horiz-adv-x="1950" d="M0 1397l386 -1300q14 -48 51 -77q38 -30 84 -30q45 0 83 28t54 74l242 679l242 -679q16 -46 52 -74q37 -28 82 -28q46 0 85 30t53 77l386 1300h-326l-204 -729l-236 608q-15 46 -52 74t-81 28q-45 0 -83 -28q-37 -28 -52 -74l-236 -608l-204 729h-326z" />
<glyph unicode="X" horiz-adv-x="1480" d="M0 0l409 634q34 49 34 96q0 40 -25 78l-375 592h370l257 -415l251 415h367l-371 -592q-30 -40 -30 -82q0 -45 34 -92l409 -634h-380l-286 449l-286 -449h-378z" />
<glyph unicode="Y" horiz-adv-x="1129" d="M0 826q0 -255 268 -255h394v-267h-536v-306h631l5 2q214 0 214 216v6v1178h-314v-536h-360v536h-302v-574z" />
<glyph unicode="Z" horiz-adv-x="1086" d="M1 1101h499l-472 -866q-23 -34 -26 -76v-8q0 -37 17 -70q19 -37 55 -58q36 -22 77 -22h785v299h-500l471 865q24 35 27 76v8q0 37 -17 70q-19 37 -55 59q-36 21 -77 21h-784v-298z" />
<glyph unicode="[" horiz-adv-x="648" d="M0 -261v1911h498v-222h-231v-1467h231v-222h-498z" />
<glyph unicode="\" horiz-adv-x="865" d="M0 1655h259l456 -1917h-253z" />
<glyph unicode="]" horiz-adv-x="648" d="M0 -39h231v1467h-231v222h498v-1911h-498v222z" />
<glyph unicode="^" horiz-adv-x="894" d="M0 749l150 491q45 139 59 159q25 36 69.5 54.5t92.5 18.5q49 0 93 -18t69 -54q14 -21 60 -160l151 -491h-230l-142 532q-3 0 -142 -532h-230z" />
<glyph unicode="_" horiz-adv-x="908" d="M0 -136v-218h758v218h-758z" />
<glyph unicode="`" horiz-adv-x="640" d="M0 1874l201 171l259 -348l3 -6q27 -31 23 -74t-37 -71q-31 -26 -74 -23q-43 2 -71 34z" />
<glyph unicode="a" d="M0 1l495 1321q18 39 54 63q36 23 80 23q43 0 81 -23q38 -24 55 -63l502 -1322h-322l-81 209h-463l-80 -208h-321zM516 512h230l-116 297z" />
<glyph unicode="b" horiz-adv-x="1184" d="M0 0h750h15q58 0 113 21q76 29 116 117q28 61 28 117q0 25 -6 49q-15 65 -274 408l217 275q53 81 53 154q0 105 -31 150q-30 45 -83 71q-69 35 -172 35h-726v-1397zM311 300v798h360l-232 -285q-40 -60 -40 -105t40 -105l246 -303h-374z" />
<glyph unicode="c" horiz-adv-x="1174" d="M0 700q0 700 544 700h480v-302h-339h-4q-358 0 -358 -328v-150q0 -321 362 -321h339v-299h-480q-544 0 -544 700z" />
<glyph unicode="d" horiz-adv-x="1269" d="M0 0h624q495 1 495 697q0 701 -495 701l-624 -1v-1397zM315 304v797h261q214 0 214 -395q0 -402 -214 -402h-261z" />
<glyph unicode="e" horiz-adv-x="1088" d="M0 275v882q0 240 315 243h623v-301h-614v-251h515v-298h-515v-248h614v-302h-623q-315 0 -315 275z" />
<glyph unicode="f" horiz-adv-x="1088" d="M0 -1v1158q0 240 315 243h623v-301h-614v-251h515v-298h-515v-551h-324z" />
<glyph unicode="g" horiz-adv-x="1164" d="M0 700q0 700 544 700h470v-302h-329q-362 0 -362 -328v-150q0 -321 348 -321h26v379h317v-678h-470q-544 0 -544 700z" />
<glyph unicode="h" horiz-adv-x="1210" d="M0 0v1400h308v-558h444v558h308v-1400h-308v540h-444v-540h-308z" />
<glyph unicode="i" horiz-adv-x="467" d="M0 -5v1402h317v-1402h-317z" />
<glyph unicode="j" horiz-adv-x="884" d="M0 4l160 -2q176 0 285.5 44.5t174.5 118.5t89.5 182.5t24.5 369.5v683h-300v-691q0 -173 -13 -239t-78 -117t-192 -51l-151 -1v-297z" />
<glyph unicode="k" horiz-adv-x="1333" d="M0 0v1400h328v-1400h-328zM412 705q0 -50 21 -90l351 -615h386l-420 703l433 697h-391l-358 -604q-22 -40 -22 -91z" />
<glyph unicode="l" horiz-adv-x="1040" d="M0 273v1125h330l-1 -971q1 -127 118 -127h443v-300h-573h-5q-312 0 -312 273z" />
<glyph unicode="m" horiz-adv-x="1409" d="M0 0h310v646l184 -408q20 -37 58 -59t81 -22q45 0 82 22q38 22 57 60l177 395v-634h310v1261q0 51 -34 91t-86 51q-19 4 -41 4q-40 0 -91 -14q-49 -22 -72 -67l-302 -633l-309 641q-24 45 -73 67q-52 14 -92 14q-21 0 -39 -4q-53 -12 -86 -52q-34 -39 -34 -90v-1269z" />
<glyph unicode="n" horiz-adv-x="1241" d="M0 -1h314v745l494 -692q30 -41 78 -56q24 -8 48.5 -8t48.5 8q49 16 78 57q30 41 30 92v1253h-314v-733l-493 691q-31 41 -79 56q-24 8 -48.5 8t-48.5 -8q-48 -16 -78 -57q-30 -42 -30 -92v-1264z" />
<glyph unicode="o" horiz-adv-x="1377" d="M0 700q0 710 503 710h221q503 0 503 -710t-503 -710h-221q-503 0 -503 710zM323 610q0 -321 282 -321h17q282 0 282 321v170q0 326 -273 328h-35q-273 -2 -273 -328v-170z" />
<glyph unicode="p" horiz-adv-x="1185" d="M0 2v1398l662 -3h2q371 0 371 -422q0 -421 -373 -421h-354l-1 -552h-307zM309 849h234q177 0 177 126q0 123 -177 123l-234 1v-250z" />
<glyph unicode="q" horiz-adv-x="1377" d="M0 700q0 710 503 710h221q503 0 503 -710q0 -47 -2 -92q-33 -593 -501 -617v-1h-120q2 -1 5 -3q10 -5 20 -12q12 -7 25 -14q64 -35 130 -43q10 -1 18 -1q10 -1 20 -1q58 0 117 20q59 19 107 53q3 3 5 4q4 3 7 5q4 4 8 7v-329q-4 -3 -8 -4q-3 -1 -7 -2q-2 -2 -5 -2 q-41 -14 -87 -25q-70 -16 -137 -16q-17 0 -34 1q-132 6 -254 71q-16 9 -32 17q-7 6 -15 9q-36 23 -70 37q-57 23 -108 23q-32 0 -62 -9q-23 -7 -43 -19q-5 -2 -10 -6q-2 -3 -5 -4h-1l-4 -4q-3 -2 -7 -5q-1 0 -1 -1q-1 -1 -4 -3l-1 -1q-1 -1 -3 -4l-2 -1q-1 -1 -2 -3 q-1 -1 -3 -2l1 329l2 1q1 1 2 1q2 0 2 1q2 0 3 2h1q3 0 5 1q1 1 3 1t4 1q3 0 5 2q3 1 5 1l10 2q17 4 33 7q-237 159 -237 628zM323 610q0 -321 282 -321h17q282 0 282 321v170q0 326 -273 328h-35q-273 -2 -273 -328v-170z" />
<glyph unicode="r" horiz-adv-x="1242" d="M0 1400l1 -1401h313l2 1110h324h5q48 1 67 -37q7 -14 7 -28q0 -26 -24 -52l-243 -301q-16 -25 -22 -45l-5 -27l2 -63l3 -4l18 -54l260 -497l384 -2l-320 553q-7 9 -7 22q0 52 110 162q138 138 140 308v7q0 166 -96.5 257.5t-247.5 91.5h-7h-664z" />
<glyph unicode="s" horiz-adv-x="1255" d="M50 790q48 -91 132 -147q57 -39 141 -60l355 -71q64 -18 64 -86q1 -10 1 -20q0 -54 -34 -78q-33 -24 -145 -24h-18h-465v-304l598 1q46 1 83 7q96 17 170 69q88 62 130 166q33 79 33 166q0 26 -3 54q-7 244 -218 324l-456 105q-64 22 -64 106q5 92 117 99h518v300h-504 h-7h-10l-30 -2q-41 -2 -81 -9q-117 -20 -188 -70q-80 -56 -125 -144q-43 -86 -43 -183q0 -107 49 -199z" />
<glyph unicode="t" horiz-adv-x="1110" d="M0 1097v303h960v-303h-309v-1098h-326v1098h-325z" />
<glyph unicode="u" horiz-adv-x="1265" d="M0 592v808h324v-808q0 -301 235 -301q234 0 234 301v808h322v-808q0 -612 -556 -612q-559 0 -559 612z" />
<glyph unicode="v" d="M0 1397l495 -1321q18 -39 54 -63q36 -23 80 -23q43 0 81 23q38 24 55 63l502 1322h-322l-315 -809l-309 808h-321z" />
<glyph unicode="w" horiz-adv-x="1950" d="M0 1397l386 -1300q14 -48 51 -77q38 -30 84 -30q45 0 83 28t54 74l242 679l242 -679q16 -46 52 -74q37 -28 82 -28q46 0 85 30t53 77l386 1300h-326l-204 -729l-236 608q-15 46 -52 74t-81 28q-45 0 -83 -28q-37 -28 -52 -74l-236 -608l-204 729h-326z" />
<glyph unicode="x" horiz-adv-x="1480" d="M0 0l409 634q34 49 34 96q0 40 -25 78l-375 592h370l257 -415l251 415h367l-371 -592q-30 -40 -30 -82q0 -45 34 -92l409 -634h-380l-286 449l-286 -449h-378z" />
<glyph unicode="y" horiz-adv-x="1129" d="M0 826q0 -255 268 -255h394v-267h-536v-306h631l5 2q214 0 214 216v6v1178h-314v-536h-360v536h-302v-574z" />
<glyph unicode="z" horiz-adv-x="1086" d="M1 1101h499l-472 -866q-23 -34 -26 -76v-8q0 -37 17 -70q19 -37 55 -58q36 -22 77 -22h785v299h-500l471 865q24 35 27 76v8q0 37 -17 70q-19 37 -55 59q-36 21 -77 21h-784v-298z" />
<glyph unicode="{" horiz-adv-x="725" d="M0 556v183q194 8 171 438t324 430h80v-204h-41q-139 -4 -98.5 -356t-158.5 -397v-5q199 -41 158.5 -396t98.5 -358h41v-202h-82q-345 0 -319.5 430t-173.5 437z" />
<glyph unicode="|" horiz-adv-x="446" d="M0 -308v1915h296v-1915h-296z" />
<glyph unicode="}" horiz-adv-x="725" d="M0 -109h41q139 3 98.5 358t158.5 396v5q-199 45 -158.5 397t-98.5 356h-41v204h80q347 0 324 -430t171 -438v-183q-199 -7 -173.5 -437t-319.5 -430h-82v202z" />
<glyph unicode="~" horiz-adv-x="912" d="M0 712q1 2 3 3q27 25 65 37q88 26 199 -40q185 -109 391 -65q55 12 104 32v265q-51 -44 -121 -66q-133 -42 -257 31q-194 115 -372 66q-5 -1 -9 -3q-2 0 -3 -1v-259z" />
<glyph unicode="&#xa1;" horiz-adv-x="504" d="M0 1v999h318v-999h-318zM0 1095h315v302h-315v-302z" />
<glyph unicode="&#xa2;" horiz-adv-x="1036" d="M16 767q41 341 372 481l24 7v144h311v-123h163v-316h-201q-192 -6 -260 -91q-124 -124 -38 -282q106 -148 298 -148h201v-313h-163v-127h-311v150q-132 41 -242 152q-170 188 -154 466z" />
<glyph unicode="&#xa3;" horiz-adv-x="1128" d="M0 2v298h128v744q0 373 429 373q401 0 401 -373v-78h-297q-11 156 -104 156q-104 0 -104 -177v-645h525v-298h-525v-3h-325v3h-128zM0 626v164h723v-164h-723z" />
<glyph unicode="&#xa4;" horiz-adv-x="1176" d="M0 396l130 130q-36 79 -36 173t36 173l-130 130l210 210l130 -130q79 36 173 36t173 -36l130 130l210 -210l-130 -131q36 -78 36 -172q0 -93 -36 -173l130 -130l-210 -210l-130 130q-80 -36 -173 -36q-94 0 -172 36l-131 -130zM343 699q0 -70 50 -120t120 -50t120 50 t50 120t-50 120t-120 50t-120 -50t-50 -120z" />
<glyph unicode="&#xa5;" horiz-adv-x="1395" d="M-1 1400h370l257 -415l251 415h367l-422 -677q-39 -61 -43 -125h157v-163h-157v-117h157v-163h-157v-160h-316v160h-156v163h156v117h-156v163h156q-4 64 -46 125z" />
<glyph unicode="&#xa6;" horiz-adv-x="446" d="M0 -308v864h296v-864h-296zM0 743v864h296v-864h-296z" />
<glyph unicode="&#xa7;" horiz-adv-x="857" d="M46 641q-46 106 15 218q13 19 28 36l-15 16l-4 5l-3 5q-6 6 -11 15l-1 5l-3 4l-6 11q-46 107 15 218q78 121 247 129h32q8 -3 19 -1h288v-2l-2 -179l-321 1q-19 -1 -32 -2l-7 -2l-14 -3v1q-32 -9 -53 -37q-11 -25 2 -50q6 -7 17 -13l10 -4l7 -3l16 -6l4 -1l51 -14 q106 -19 225 -70l1 -1l13 -7l7 -3l12 -10l3 -1q5 -5 13 -10l5 -5l4 -4l17 -16q3 -4 7 -8q2 -4 6 -8q3 -5 8 -12v-3q6 -5 8 -14l2 -2l3 -6q3 -7 7 -13l4 -15v-1q36 -123 -45 -233q3 -4 7 -9q2 -3 6 -8q3 -4 8 -11v-3q6 -6 8 -14l2 -2l3 -6q3 -7 7 -13l4 -15v-1 q37 -126 -49 -238l-35 -34l-5 -4l-2 -2l-26 -18q-3 -2 -14 -8q-5 -1 -9 -5l-49 -18l-12 -3h2l-10 -3h-5l-5 -3h-4l-5 -1l-2 -1l-9 -1h-3l-8 -1l-4 -1q-7 0 -16 -2h-12l-4 -1l-327 -1v178h361q64 12 75 68q11 45 -32 69q-8 5 -18 9h-1l-243 69q-6 1 -13 6l-8 2l-21 10 q-5 2 -12 7h-3l-6 4l-8 6l-4 2l-4 4l-3 2l-6 4q-3 3 -10 9l-27 28l-4 5l-3 4q-3 3 -5 6l-5 1h4q-2 4 -5 9l-1 4l-3 5zM218 764q-11 -25 2 -51q6 -7 17 -13l10 -3l7 -4l204 -55l5 -1l6 -2q19 17 24 45q11 45 -32 70q-9 4 -20 9l-7 2l-94 26l-7 2q-7 4 -20 5l-6 1q-6 3 -10 4 q-3 2 -9 2q-2 1 -5 1l-12 -2v1q-32 -9 -53 -37zM647 1302h4q-3 5 -4 0z" />
<glyph unicode="&#xa8;" horiz-adv-x="962" d="M0 1522v302h315v-302h-315zM497 1522v302h315v-302h-315z" />
<glyph unicode="&#xa9;" horiz-adv-x="1088" d="M0 1228q0 194 137.5 331.5t331.5 137.5t331.5 -137.5t137.5 -331.5t-137.5 -331.5t-331.5 -137.5t-331.5 137.5t-137.5 331.5zM117 1228q0 -146 103 -249t249 -103t249 103t103 249t-103 249t-249 103t-249 -103t-103 -249zM196 1261q18 169 169 238l21 6l5 2h2l10 3 q5 0 11 1q4 -1 10 2h161v-124h-123q-61 -4 -104 -52q-62 -85 -19 -190q51 -96 163 -83h88l-5 2v-124h-125q-110 -6 -195 86q-77 93 -69 233z" />
<glyph unicode="&#xaa;" horiz-adv-x="851" d="M0 980q2 -17 30 -17q16 0 32 3q-20 -4 -35 -22q-14 -16 -14 -29q0 -4 1 -11q5 -9 16 -9q3 0 15 1q6 2 15 7q11 6 24 14q0 -11 -15 -29q-12 -16 -12 -30q1 -19 16 -21h3q14 0 29 15q-8 -67 -11 -67v2q12 5 25 24q16 22 25 28q-1 -5 -17 -39q-10 -19 -10 -32v-8q20 8 40 49 q-3 -18 -3 -27q0 -14 7 -14q13 0 45 30q-10 -27 -10 -43q0 -3 2 -6q0 2 40 44l-1 -5l-2 -8q-1 -10 -3 -19q-2 -7 -3 -14q-1 -5 -1 -8q0 -4 4 -4q7 0 30 30v-5q0 -16 7 -21q4 -3 9 -3t12 3q-6 -7 -12 -9q-9 -5 -27 -6q-18 -2 -26 -12q13 -12 60 -12q-18 -10 -22 -23v-2 q0 -9 8 -20q11 -9 26 -9t26 11q-3 -17 -3 -27q0 -25 10 -32q3 -3 7 -3q15 0 42 33q5 -56 10 -63q3 -3 6 -3q10 0 38 33q0 -47 35 -49q14 0 23 11q13 13 13 35q22 -28 40 -28q16 0 16 31v6q12 -17 26 -20q1 -3 2 -11l2 -7l1 -8q4 -24 5 -28q7 -32 19 -35l-10 -13 q-31 -27 -31 -46v-1q-5 -10 -5 -29q-2 -26 -3 -30q-4 -12 -19 -31q-18 -26 -21 -32q-6 -11 -9 -28q-23 -10 -45 -55q-9 -18 -14 -35q-11 -25 -11 -49v-6l-2 -3q-42 -8 -42 -32q0 -5 3 -14v-2q0 -7 -11 -28l-15 -34l-4 -17v-5q0 -6 3 -8h1l2 1l3 1l2 -3h2q1 0 4 3l2 -2h1 q4 0 8 7l2 3q0 1 2 1l7 16l18 19l25 42l20 49q14 23 28 44q-1 -2 9 9q12 12 30 32q7 6 13 12l8 10q66 75 93 142q25 24 34 64q49 97 49 143v3q0 12 -3 34q9 14 9 36l-2 19q-4 26 -20 45q-12 15 -25 15q-4 0 -5 -1v1l-2 -1q-5 7 -13 14q0 3 -6 15l-6 12v2q0 6 9 15q5 6 5 8v3 q-3 7 -12 7v5q0 4 -6 4l2 3v2q0 2 -2 2h-9q2 0 3 3v1q0 4 -3 5l-27 -3q8 4 12 13q-4 -7 -15 -12h-1l10 9l-12 -7l-2 2l13 9l-9 -6q3 5 3 9v2q0 -8 -12 -14h-1q-3 1 -6 1h-2q5 8 22 23l-27 -23v2h-3q-12 0 -25 -10q-13 -11 -13 -23q-32 77 -49 91q-3 3 -9 7q-25 78 -25 140 q0 42 12 77q39 138 233 143l4 17q-113 -1 -197 -63q56 100 123 134h-18q-48 -38 -101 -102q-104 -125 -126 -238q-10 22 -13 42l-2 12v20q0 88 56 176q93 80 95 114q-58 -13 -108 -80q-41 -57 -60 -118q4 36 34 108q30 66 32 105l-4 1q-28 0 -59 -96q-11 -37 -22 -81 q-5 -21 -8 -34q-4 -12 -5 -16v2q0 6 14 117q5 36 5 56q0 40 -14 46q-48 -76 -48 -249q-1 9 -3 24q-3 18 -8 39q-8 42 -9 65v10l1 7v8q2 20 2 30q0 39 -16 50q-33 -22 -33 -103q0 -70 25 -183q-4 20 -21 58q-18 49 -20 55q-33 80 -33 92v1h1q-5 2 -8 2q-13 0 -13 -36l2 -18 q4 -58 19 -108q-42 98 -77 116l1 2q8 0 36 -130q-5 3 -28 28q-17 21 -32 21h-2q-10 0 -10 -9q0 -7 6 -18q16 -23 24 -35h-5q-13 0 -29 8t-28 8q-6 0 -8 -2l-2 -9q0 -10 10 -21l2 -2l4 -2l8 -8q10 -8 12 -11q-51 -18 -55 -19l-1 -3q0 -10 38 -27q-4 -3 -15 -7l-10 -4 q-4 -2 -7 -4q-19 -10 -19 -24v-3z" />
<glyph unicode="&#xab;" horiz-adv-x="1017" d="M0 700l246 401h220l-252 -401l250 -399h-218zM403 700l246 401h218l-250 -401l250 -399h-220z" />
<glyph unicode="&#xac;" horiz-adv-x="851" d="M0 980q2 -17 30 -17q16 0 32 3q-20 -4 -35 -22q-14 -16 -14 -29q0 -4 1 -11q5 -9 16 -9q3 0 15 1q6 2 15 7q11 6 24 14q0 -11 -15 -29q-12 -16 -12 -30q1 -19 16 -21h3q14 0 29 15q-8 -67 -11 -67v2q12 5 25 24q16 22 25 28q-1 -5 -17 -39q-10 -19 -10 -32v-8q20 8 40 49 q-3 -18 -3 -27q0 -14 7 -14q13 0 45 30q-10 -27 -10 -43q0 -3 2 -6q0 2 40 44l-1 -5l-2 -8q-1 -10 -3 -19q-2 -7 -3 -14q-1 -5 -1 -8q0 -4 4 -4q7 0 30 30v-5q0 -16 7 -21q4 -3 9 -3t12 3q-6 -7 -12 -9q-9 -5 -27 -6q-18 -2 -26 -12q13 -12 60 -12q-18 -10 -22 -23v-2 q0 -9 8 -20q11 -9 26 -9t26 11q-3 -17 -3 -27q0 -25 10 -32q3 -3 7 -3q15 0 42 33q5 -56 10 -63q3 -3 6 -3q10 0 38 33q0 -47 35 -49q14 0 23 11q13 13 13 35q22 -28 40 -28q16 0 16 31v6q12 -17 26 -20q1 -3 2 -11l2 -7l1 -8q4 -24 5 -28q7 -32 19 -35l-10 -13 q-31 -27 -31 -46v-1q-5 -10 -5 -29q-2 -26 -3 -30q-4 -12 -19 -31q-18 -26 -21 -32q-6 -11 -9 -28q-23 -10 -45 -55q-9 -18 -14 -35q-11 -25 -11 -49v-6l-2 -3q-42 -8 -42 -32q0 -5 3 -14v-2q0 -7 -11 -28l-15 -34l-4 -17v-5q0 -6 3 -8h1l2 1l3 1l2 -3h2q1 0 4 3l2 -2h1 q4 0 8 7l2 3q0 1 2 1l7 16l18 19l25 42l20 49q14 23 28 44q-1 -2 9 9q12 12 30 32q7 6 13 12l8 10q66 75 93 142q25 24 34 64q49 97 49 143v3q0 12 -3 34q9 14 9 36l-2 19q-4 26 -20 45q-12 15 -25 15q-4 0 -5 -1v1l-2 -1q-5 7 -13 14q0 3 -6 15l-6 12v2q0 6 9 15q5 6 5 8v3 q-3 7 -12 7v5q0 4 -6 4l2 3v2q0 2 -2 2h-9q2 0 3 3v1q0 4 -3 5l-27 -3q8 4 12 13q-4 -7 -15 -12h-1l10 9l-12 -7l-2 2l13 9l-9 -6q3 5 3 9v2q0 -8 -12 -14h-1q-3 1 -6 1h-2q5 8 22 23l-27 -23v2h-3q-12 0 -25 -10q-13 -11 -13 -23q-32 77 -49 91q-3 3 -9 7q-25 78 -25 140 q0 42 12 77q39 138 233 143l4 17q-113 -1 -197 -63q56 100 123 134h-18q-48 -38 -101 -102q-104 -125 -126 -238q-10 22 -13 42l-2 12v20q0 88 56 176q93 80 95 114q-58 -13 -108 -80q-41 -57 -60 -118q4 36 34 108q30 66 32 105l-4 1q-28 0 -59 -96q-11 -37 -22 -81 q-5 -21 -8 -34q-4 -12 -5 -16v2q0 6 14 117q5 36 5 56q0 40 -14 46q-48 -76 -48 -249q-1 9 -3 24q-3 18 -8 39q-8 42 -9 65v10l1 7v8q2 20 2 30q0 39 -16 50q-33 -22 -33 -103q0 -70 25 -183q-4 20 -21 58q-18 49 -20 55q-33 80 -33 92v1h1q-5 2 -8 2q-13 0 -13 -36l2 -18 q4 -58 19 -108q-42 98 -77 116l1 2q8 0 36 -130q-5 3 -28 28q-17 21 -32 21h-2q-10 0 -10 -9q0 -7 6 -18q16 -23 24 -35h-5q-13 0 -29 8t-28 8q-6 0 -8 -2l-2 -9q0 -10 10 -21l2 -2l4 -2l8 -8q10 -8 12 -11q-51 -18 -55 -19l-1 -3q0 -10 38 -27q-4 -3 -15 -7l-10 -4 q-4 -2 -7 -4q-19 -10 -19 -24v-3z" />
<glyph unicode="&#xad;" horiz-adv-x="744" d="M0 550v298h594v-298h-594z" />
<glyph unicode="&#xae;" horiz-adv-x="1088" d="M0 1228q0 194 137.5 331.5t331.5 137.5t331.5 -137.5t137.5 -331.5t-137.5 -331.5t-331.5 -137.5t-331.5 137.5t-137.5 331.5zM117 1228q0 -146 103 -249t249 -103t249 103t103 249t-103 249t-249 103t-249 -103t-103 -249zM299 1496l1 -504h112l1 392h113q19 1 26 -13.5 t-6 -28.5l-91 -101q-6 -9 -8 -17l-2 -9l1 -23l1 -2l6 -19l101 -179l138 -1l-115 199q-12 17 37.5 66.5t50 111t-35 95.5t-91.5 33h-239z" />
<glyph unicode="&#xaf;" horiz-adv-x="710" d="M0 1522v206h560v-206h-560z" />
<glyph unicode="&#xb0;" horiz-adv-x="524" d="M0 1505q0 77 55 132t132 55t132 -55t55 -132t-55 -132t-132 -55t-132 55t-55 132zM106 1505q0 -34 23 -58q24 -23 58 -23t58 23q23 24 23 58t-23 58q-24 23 -58 23t-58 -23q-23 -24 -23 -58z" />
<glyph unicode="&#xb1;" horiz-adv-x="851" d="M0 980q2 -17 30 -17q16 0 32 3q-20 -4 -35 -22q-14 -16 -14 -29q0 -4 1 -11q5 -9 16 -9q3 0 15 1q6 2 15 7q11 6 24 14q0 -11 -15 -29q-12 -16 -12 -30q1 -19 16 -21h3q14 0 29 15q-8 -67 -11 -67v2q12 5 25 24q16 22 25 28q-1 -5 -17 -39q-10 -19 -10 -32v-8q20 8 40 49 q-3 -18 -3 -27q0 -14 7 -14q13 0 45 30q-10 -27 -10 -43q0 -3 2 -6q0 2 40 44l-1 -5l-2 -8q-1 -10 -3 -19q-2 -7 -3 -14q-1 -5 -1 -8q0 -4 4 -4q7 0 30 30v-5q0 -16 7 -21q4 -3 9 -3t12 3q-6 -7 -12 -9q-9 -5 -27 -6q-18 -2 -26 -12q13 -12 60 -12q-18 -10 -22 -23v-2 q0 -9 8 -20q11 -9 26 -9t26 11q-3 -17 -3 -27q0 -25 10 -32q3 -3 7 -3q15 0 42 33q5 -56 10 -63q3 -3 6 -3q10 0 38 33q0 -47 35 -49q14 0 23 11q13 13 13 35q22 -28 40 -28q16 0 16 31v6q12 -17 26 -20q1 -3 2 -11l2 -7l1 -8q4 -24 5 -28q7 -32 19 -35l-10 -13 q-31 -27 -31 -46v-1q-5 -10 -5 -29q-2 -26 -3 -30q-4 -12 -19 -31q-18 -26 -21 -32q-6 -11 -9 -28q-23 -10 -45 -55q-9 -18 -14 -35q-11 -25 -11 -49v-6l-2 -3q-42 -8 -42 -32q0 -5 3 -14v-2q0 -7 -11 -28l-15 -34l-4 -17v-5q0 -6 3 -8h1l2 1l3 1l2 -3h2q1 0 4 3l2 -2h1 q4 0 8 7l2 3q0 1 2 1l7 16l18 19l25 42l20 49q14 23 28 44q-1 -2 9 9q12 12 30 32q7 6 13 12l8 10q66 75 93 142q25 24 34 64q49 97 49 143v3q0 12 -3 34q9 14 9 36l-2 19q-4 26 -20 45q-12 15 -25 15q-4 0 -5 -1v1l-2 -1q-5 7 -13 14q0 3 -6 15l-6 12v2q0 6 9 15q5 6 5 8v3 q-3 7 -12 7v5q0 4 -6 4l2 3v2q0 2 -2 2h-9q2 0 3 3v1q0 4 -3 5l-27 -3q8 4 12 13q-4 -7 -15 -12h-1l10 9l-12 -7l-2 2l13 9l-9 -6q3 5 3 9v2q0 -8 -12 -14h-1q-3 1 -6 1h-2q5 8 22 23l-27 -23v2h-3q-12 0 -25 -10q-13 -11 -13 -23q-32 77 -49 91q-3 3 -9 7q-25 78 -25 140 q0 42 12 77q39 138 233 143l4 17q-113 -1 -197 -63q56 100 123 134h-18q-48 -38 -101 -102q-104 -125 -126 -238q-10 22 -13 42l-2 12v20q0 88 56 176q93 80 95 114q-58 -13 -108 -80q-41 -57 -60 -118q4 36 34 108q30 66 32 105l-4 1q-28 0 -59 -96q-11 -37 -22 -81 q-5 -21 -8 -34q-4 -12 -5 -16v2q0 6 14 117q5 36 5 56q0 40 -14 46q-48 -76 -48 -249q-1 9 -3 24q-3 18 -8 39q-8 42 -9 65v10l1 7v8q2 20 2 30q0 39 -16 50q-33 -22 -33 -103q0 -70 25 -183q-4 20 -21 58q-18 49 -20 55q-33 80 -33 92v1h1q-5 2 -8 2q-13 0 -13 -36l2 -18 q4 -58 19 -108q-42 98 -77 116l1 2q8 0 36 -130q-5 3 -28 28q-17 21 -32 21h-2q-10 0 -10 -9q0 -7 6 -18q16 -23 24 -35h-5q-13 0 -29 8t-28 8q-6 0 -8 -2l-2 -9q0 -10 10 -21l2 -2l4 -2l8 -8q10 -8 12 -11q-51 -18 -55 -19l-1 -3q0 -10 38 -27q-4 -3 -15 -7l-10 -4 q-4 -2 -7 -4q-19 -10 -19 -24v-3z" />
<glyph unicode="&#xb2;" horiz-adv-x="851" d="M0 980q2 -17 30 -17q16 0 32 3q-20 -4 -35 -22q-14 -16 -14 -29q0 -4 1 -11q5 -9 16 -9q3 0 15 1q6 2 15 7q11 6 24 14q0 -11 -15 -29q-12 -16 -12 -30q1 -19 16 -21h3q14 0 29 15q-8 -67 -11 -67v2q12 5 25 24q16 22 25 28q-1 -5 -17 -39q-10 -19 -10 -32v-8q20 8 40 49 q-3 -18 -3 -27q0 -14 7 -14q13 0 45 30q-10 -27 -10 -43q0 -3 2 -6q0 2 40 44l-1 -5l-2 -8q-1 -10 -3 -19q-2 -7 -3 -14q-1 -5 -1 -8q0 -4 4 -4q7 0 30 30v-5q0 -16 7 -21q4 -3 9 -3t12 3q-6 -7 -12 -9q-9 -5 -27 -6q-18 -2 -26 -12q13 -12 60 -12q-18 -10 -22 -23v-2 q0 -9 8 -20q11 -9 26 -9t26 11q-3 -17 -3 -27q0 -25 10 -32q3 -3 7 -3q15 0 42 33q5 -56 10 -63q3 -3 6 -3q10 0 38 33q0 -47 35 -49q14 0 23 11q13 13 13 35q22 -28 40 -28q16 0 16 31v6q12 -17 26 -20q1 -3 2 -11l2 -7l1 -8q4 -24 5 -28q7 -32 19 -35l-10 -13 q-31 -27 -31 -46v-1q-5 -10 -5 -29q-2 -26 -3 -30q-4 -12 -19 -31q-18 -26 -21 -32q-6 -11 -9 -28q-23 -10 -45 -55q-9 -18 -14 -35q-11 -25 -11 -49v-6l-2 -3q-42 -8 -42 -32q0 -5 3 -14v-2q0 -7 -11 -28l-15 -34l-4 -17v-5q0 -6 3 -8h1l2 1l3 1l2 -3h2q1 0 4 3l2 -2h1 q4 0 8 7l2 3q0 1 2 1l7 16l18 19l25 42l20 49q14 23 28 44q-1 -2 9 9q12 12 30 32q7 6 13 12l8 10q66 75 93 142q25 24 34 64q49 97 49 143v3q0 12 -3 34q9 14 9 36l-2 19q-4 26 -20 45q-12 15 -25 15q-4 0 -5 -1v1l-2 -1q-5 7 -13 14q0 3 -6 15l-6 12v2q0 6 9 15q5 6 5 8v3 q-3 7 -12 7v5q0 4 -6 4l2 3v2q0 2 -2 2h-9q2 0 3 3v1q0 4 -3 5l-27 -3q8 4 12 13q-4 -7 -15 -12h-1l10 9l-12 -7l-2 2l13 9l-9 -6q3 5 3 9v2q0 -8 -12 -14h-1q-3 1 -6 1h-2q5 8 22 23l-27 -23v2h-3q-12 0 -25 -10q-13 -11 -13 -23q-32 77 -49 91q-3 3 -9 7q-25 78 -25 140 q0 42 12 77q39 138 233 143l4 17q-113 -1 -197 -63q56 100 123 134h-18q-48 -38 -101 -102q-104 -125 -126 -238q-10 22 -13 42l-2 12v20q0 88 56 176q93 80 95 114q-58 -13 -108 -80q-41 -57 -60 -118q4 36 34 108q30 66 32 105l-4 1q-28 0 -59 -96q-11 -37 -22 -81 q-5 -21 -8 -34q-4 -12 -5 -16v2q0 6 14 117q5 36 5 56q0 40 -14 46q-48 -76 -48 -249q-1 9 -3 24q-3 18 -8 39q-8 42 -9 65v10l1 7v8q2 20 2 30q0 39 -16 50q-33 -22 -33 -103q0 -70 25 -183q-4 20 -21 58q-18 49 -20 55q-33 80 -33 92v1h1q-5 2 -8 2q-13 0 -13 -36l2 -18 q4 -58 19 -108q-42 98 -77 116l1 2q8 0 36 -130q-5 3 -28 28q-17 21 -32 21h-2q-10 0 -10 -9q0 -7 6 -18q16 -23 24 -35h-5q-13 0 -29 8t-28 8q-6 0 -8 -2l-2 -9q0 -10 10 -21l2 -2l4 -2l8 -8q10 -8 12 -11q-51 -18 -55 -19l-1 -3q0 -10 38 -27q-4 -3 -15 -7l-10 -4 q-4 -2 -7 -4q-19 -10 -19 -24v-3z" />
<glyph unicode="&#xb3;" horiz-adv-x="851" d="M0 980q2 -17 30 -17q16 0 32 3q-20 -4 -35 -22q-14 -16 -14 -29q0 -4 1 -11q5 -9 16 -9q3 0 15 1q6 2 15 7q11 6 24 14q0 -11 -15 -29q-12 -16 -12 -30q1 -19 16 -21h3q14 0 29 15q-8 -67 -11 -67v2q12 5 25 24q16 22 25 28q-1 -5 -17 -39q-10 -19 -10 -32v-8q20 8 40 49 q-3 -18 -3 -27q0 -14 7 -14q13 0 45 30q-10 -27 -10 -43q0 -3 2 -6q0 2 40 44l-1 -5l-2 -8q-1 -10 -3 -19q-2 -7 -3 -14q-1 -5 -1 -8q0 -4 4 -4q7 0 30 30v-5q0 -16 7 -21q4 -3 9 -3t12 3q-6 -7 -12 -9q-9 -5 -27 -6q-18 -2 -26 -12q13 -12 60 -12q-18 -10 -22 -23v-2 q0 -9 8 -20q11 -9 26 -9t26 11q-3 -17 -3 -27q0 -25 10 -32q3 -3 7 -3q15 0 42 33q5 -56 10 -63q3 -3 6 -3q10 0 38 33q0 -47 35 -49q14 0 23 11q13 13 13 35q22 -28 40 -28q16 0 16 31v6q12 -17 26 -20q1 -3 2 -11l2 -7l1 -8q4 -24 5 -28q7 -32 19 -35l-10 -13 q-31 -27 -31 -46v-1q-5 -10 -5 -29q-2 -26 -3 -30q-4 -12 -19 -31q-18 -26 -21 -32q-6 -11 -9 -28q-23 -10 -45 -55q-9 -18 -14 -35q-11 -25 -11 -49v-6l-2 -3q-42 -8 -42 -32q0 -5 3 -14v-2q0 -7 -11 -28l-15 -34l-4 -17v-5q0 -6 3 -8h1l2 1l3 1l2 -3h2q1 0 4 3l2 -2h1 q4 0 8 7l2 3q0 1 2 1l7 16l18 19l25 42l20 49q14 23 28 44q-1 -2 9 9q12 12 30 32q7 6 13 12l8 10q66 75 93 142q25 24 34 64q49 97 49 143v3q0 12 -3 34q9 14 9 36l-2 19q-4 26 -20 45q-12 15 -25 15q-4 0 -5 -1v1l-2 -1q-5 7 -13 14q0 3 -6 15l-6 12v2q0 6 9 15q5 6 5 8v3 q-3 7 -12 7v5q0 4 -6 4l2 3v2q0 2 -2 2h-9q2 0 3 3v1q0 4 -3 5l-27 -3q8 4 12 13q-4 -7 -15 -12h-1l10 9l-12 -7l-2 2l13 9l-9 -6q3 5 3 9v2q0 -8 -12 -14h-1q-3 1 -6 1h-2q5 8 22 23l-27 -23v2h-3q-12 0 -25 -10q-13 -11 -13 -23q-32 77 -49 91q-3 3 -9 7q-25 78 -25 140 q0 42 12 77q39 138 233 143l4 17q-113 -1 -197 -63q56 100 123 134h-18q-48 -38 -101 -102q-104 -125 -126 -238q-10 22 -13 42l-2 12v20q0 88 56 176q93 80 95 114q-58 -13 -108 -80q-41 -57 -60 -118q4 36 34 108q30 66 32 105l-4 1q-28 0 -59 -96q-11 -37 -22 -81 q-5 -21 -8 -34q-4 -12 -5 -16v2q0 6 14 117q5 36 5 56q0 40 -14 46q-48 -76 -48 -249q-1 9 -3 24q-3 18 -8 39q-8 42 -9 65v10l1 7v8q2 20 2 30q0 39 -16 50q-33 -22 -33 -103q0 -70 25 -183q-4 20 -21 58q-18 49 -20 55q-33 80 -33 92v1h1q-5 2 -8 2q-13 0 -13 -36l2 -18 q4 -58 19 -108q-42 98 -77 116l1 2q8 0 36 -130q-5 3 -28 28q-17 21 -32 21h-2q-10 0 -10 -9q0 -7 6 -18q16 -23 24 -35h-5q-13 0 -29 8t-28 8q-6 0 -8 -2l-2 -9q0 -10 10 -21l2 -2l4 -2l8 -8q10 -8 12 -11q-51 -18 -55 -19l-1 -3q0 -10 38 -27q-4 -3 -15 -7l-10 -4 q-4 -2 -7 -4q-19 -10 -19 -24v-3z" />
<glyph unicode="&#xb4;" horiz-adv-x="640" d="M0 1617q-3 43 23 74l4 6l259 348l200 -171l-304 -317q-27 -32 -70 -34q-43 -3 -74 23q-34 28 -38 71z" />
<glyph unicode="&#xb5;" horiz-adv-x="851" d="M0 980q2 -17 30 -17q16 0 32 3q-20 -4 -35 -22q-14 -16 -14 -29q0 -4 1 -11q5 -9 16 -9q3 0 15 1q6 2 15 7q11 6 24 14q0 -11 -15 -29q-12 -16 -12 -30q1 -19 16 -21h3q14 0 29 15q-8 -67 -11 -67v2q12 5 25 24q16 22 25 28q-1 -5 -17 -39q-10 -19 -10 -32v-8q20 8 40 49 q-3 -18 -3 -27q0 -14 7 -14q13 0 45 30q-10 -27 -10 -43q0 -3 2 -6q0 2 40 44l-1 -5l-2 -8q-1 -10 -3 -19q-2 -7 -3 -14q-1 -5 -1 -8q0 -4 4 -4q7 0 30 30v-5q0 -16 7 -21q4 -3 9 -3t12 3q-6 -7 -12 -9q-9 -5 -27 -6q-18 -2 -26 -12q13 -12 60 -12q-18 -10 -22 -23v-2 q0 -9 8 -20q11 -9 26 -9t26 11q-3 -17 -3 -27q0 -25 10 -32q3 -3 7 -3q15 0 42 33q5 -56 10 -63q3 -3 6 -3q10 0 38 33q0 -47 35 -49q14 0 23 11q13 13 13 35q22 -28 40 -28q16 0 16 31v6q12 -17 26 -20q1 -3 2 -11l2 -7l1 -8q4 -24 5 -28q7 -32 19 -35l-10 -13 q-31 -27 -31 -46v-1q-5 -10 -5 -29q-2 -26 -3 -30q-4 -12 -19 -31q-18 -26 -21 -32q-6 -11 -9 -28q-23 -10 -45 -55q-9 -18 -14 -35q-11 -25 -11 -49v-6l-2 -3q-42 -8 -42 -32q0 -5 3 -14v-2q0 -7 -11 -28l-15 -34l-4 -17v-5q0 -6 3 -8h1l2 1l3 1l2 -3h2q1 0 4 3l2 -2h1 q4 0 8 7l2 3q0 1 2 1l7 16l18 19l25 42l20 49q14 23 28 44q-1 -2 9 9q12 12 30 32q7 6 13 12l8 10q66 75 93 142q25 24 34 64q49 97 49 143v3q0 12 -3 34q9 14 9 36l-2 19q-4 26 -20 45q-12 15 -25 15q-4 0 -5 -1v1l-2 -1q-5 7 -13 14q0 3 -6 15l-6 12v2q0 6 9 15q5 6 5 8v3 q-3 7 -12 7v5q0 4 -6 4l2 3v2q0 2 -2 2h-9q2 0 3 3v1q0 4 -3 5l-27 -3q8 4 12 13q-4 -7 -15 -12h-1l10 9l-12 -7l-2 2l13 9l-9 -6q3 5 3 9v2q0 -8 -12 -14h-1q-3 1 -6 1h-2q5 8 22 23l-27 -23v2h-3q-12 0 -25 -10q-13 -11 -13 -23q-32 77 -49 91q-3 3 -9 7q-25 78 -25 140 q0 42 12 77q39 138 233 143l4 17q-113 -1 -197 -63q56 100 123 134h-18q-48 -38 -101 -102q-104 -125 -126 -238q-10 22 -13 42l-2 12v20q0 88 56 176q93 80 95 114q-58 -13 -108 -80q-41 -57 -60 -118q4 36 34 108q30 66 32 105l-4 1q-28 0 -59 -96q-11 -37 -22 -81 q-5 -21 -8 -34q-4 -12 -5 -16v2q0 6 14 117q5 36 5 56q0 40 -14 46q-48 -76 -48 -249q-1 9 -3 24q-3 18 -8 39q-8 42 -9 65v10l1 7v8q2 20 2 30q0 39 -16 50q-33 -22 -33 -103q0 -70 25 -183q-4 20 -21 58q-18 49 -20 55q-33 80 -33 92v1h1q-5 2 -8 2q-13 0 -13 -36l2 -18 q4 -58 19 -108q-42 98 -77 116l1 2q8 0 36 -130q-5 3 -28 28q-17 21 -32 21h-2q-10 0 -10 -9q0 -7 6 -18q16 -23 24 -35h-5q-13 0 -29 8t-28 8q-6 0 -8 -2l-2 -9q0 -10 10 -21l2 -2l4 -2l8 -8q10 -8 12 -11q-51 -18 -55 -19l-1 -3q0 -10 38 -27q-4 -3 -15 -7l-10 -4 q-4 -2 -7 -4q-19 -10 -19 -24v-3z" />
<glyph unicode="&#xb6;" horiz-adv-x="1006" d="M4 969q-4 186 109 298q145 144 465 144q183 0 278 -22v-1389h-187v1088h-140v-1088h-187v605h-12q-105 0 -204 88q-120 107 -122 276z" />
<glyph unicode="&#xb7;" horiz-adv-x="464" d="M0 409h314v302h-314v-302z" />
<glyph unicode="&#xb8;" horiz-adv-x="590" d="M0 -321q17 -34 44 -60q68 -68 164 -67q97 1 164 69q68 68 67 165q0 96 -69 163q-11 11 -26 23v190h-139v-309h7q26 -1 44 -19q21 -20 21 -49t-20 -50q-21 -20 -50 -20q-28 -1 -49 20q-11 11 -17 28z" />
<glyph unicode="&#xb9;" horiz-adv-x="851" d="M0 980q2 -17 30 -17q16 0 32 3q-20 -4 -35 -22q-14 -16 -14 -29q0 -4 1 -11q5 -9 16 -9q3 0 15 1q6 2 15 7q11 6 24 14q0 -11 -15 -29q-12 -16 -12 -30q1 -19 16 -21h3q14 0 29 15q-8 -67 -11 -67v2q12 5 25 24q16 22 25 28q-1 -5 -17 -39q-10 -19 -10 -32v-8q20 8 40 49 q-3 -18 -3 -27q0 -14 7 -14q13 0 45 30q-10 -27 -10 -43q0 -3 2 -6q0 2 40 44l-1 -5l-2 -8q-1 -10 -3 -19q-2 -7 -3 -14q-1 -5 -1 -8q0 -4 4 -4q7 0 30 30v-5q0 -16 7 -21q4 -3 9 -3t12 3q-6 -7 -12 -9q-9 -5 -27 -6q-18 -2 -26 -12q13 -12 60 -12q-18 -10 -22 -23v-2 q0 -9 8 -20q11 -9 26 -9t26 11q-3 -17 -3 -27q0 -25 10 -32q3 -3 7 -3q15 0 42 33q5 -56 10 -63q3 -3 6 -3q10 0 38 33q0 -47 35 -49q14 0 23 11q13 13 13 35q22 -28 40 -28q16 0 16 31v6q12 -17 26 -20q1 -3 2 -11l2 -7l1 -8q4 -24 5 -28q7 -32 19 -35l-10 -13 q-31 -27 -31 -46v-1q-5 -10 -5 -29q-2 -26 -3 -30q-4 -12 -19 -31q-18 -26 -21 -32q-6 -11 -9 -28q-23 -10 -45 -55q-9 -18 -14 -35q-11 -25 -11 -49v-6l-2 -3q-42 -8 -42 -32q0 -5 3 -14v-2q0 -7 -11 -28l-15 -34l-4 -17v-5q0 -6 3 -8h1l2 1l3 1l2 -3h2q1 0 4 3l2 -2h1 q4 0 8 7l2 3q0 1 2 1l7 16l18 19l25 42l20 49q14 23 28 44q-1 -2 9 9q12 12 30 32q7 6 13 12l8 10q66 75 93 142q25 24 34 64q49 97 49 143v3q0 12 -3 34q9 14 9 36l-2 19q-4 26 -20 45q-12 15 -25 15q-4 0 -5 -1v1l-2 -1q-5 7 -13 14q0 3 -6 15l-6 12v2q0 6 9 15q5 6 5 8v3 q-3 7 -12 7v5q0 4 -6 4l2 3v2q0 2 -2 2h-9q2 0 3 3v1q0 4 -3 5l-27 -3q8 4 12 13q-4 -7 -15 -12h-1l10 9l-12 -7l-2 2l13 9l-9 -6q3 5 3 9v2q0 -8 -12 -14h-1q-3 1 -6 1h-2q5 8 22 23l-27 -23v2h-3q-12 0 -25 -10q-13 -11 -13 -23q-32 77 -49 91q-3 3 -9 7q-25 78 -25 140 q0 42 12 77q39 138 233 143l4 17q-113 -1 -197 -63q56 100 123 134h-18q-48 -38 -101 -102q-104 -125 -126 -238q-10 22 -13 42l-2 12v20q0 88 56 176q93 80 95 114q-58 -13 -108 -80q-41 -57 -60 -118q4 36 34 108q30 66 32 105l-4 1q-28 0 -59 -96q-11 -37 -22 -81 q-5 -21 -8 -34q-4 -12 -5 -16v2q0 6 14 117q5 36 5 56q0 40 -14 46q-48 -76 -48 -249q-1 9 -3 24q-3 18 -8 39q-8 42 -9 65v10l1 7v8q2 20 2 30q0 39 -16 50q-33 -22 -33 -103q0 -70 25 -183q-4 20 -21 58q-18 49 -20 55q-33 80 -33 92v1h1q-5 2 -8 2q-13 0 -13 -36l2 -18 q4 -58 19 -108q-42 98 -77 116l1 2q8 0 36 -130q-5 3 -28 28q-17 21 -32 21h-2q-10 0 -10 -9q0 -7 6 -18q16 -23 24 -35h-5q-13 0 -29 8t-28 8q-6 0 -8 -2l-2 -9q0 -10 10 -21l2 -2l4 -2l8 -8q10 -8 12 -11q-51 -18 -55 -19l-1 -3q0 -10 38 -27q-4 -3 -15 -7l-10 -4 q-4 -2 -7 -4q-19 -10 -19 -24v-3z" />
<glyph unicode="&#xba;" horiz-adv-x="851" d="M0 980q2 -17 30 -17q16 0 32 3q-20 -4 -35 -22q-14 -16 -14 -29q0 -4 1 -11q5 -9 16 -9q3 0 15 1q6 2 15 7q11 6 24 14q0 -11 -15 -29q-12 -16 -12 -30q1 -19 16 -21h3q14 0 29 15q-8 -67 -11 -67v2q12 5 25 24q16 22 25 28q-1 -5 -17 -39q-10 -19 -10 -32v-8q20 8 40 49 q-3 -18 -3 -27q0 -14 7 -14q13 0 45 30q-10 -27 -10 -43q0 -3 2 -6q0 2 40 44l-1 -5l-2 -8q-1 -10 -3 -19q-2 -7 -3 -14q-1 -5 -1 -8q0 -4 4 -4q7 0 30 30v-5q0 -16 7 -21q4 -3 9 -3t12 3q-6 -7 -12 -9q-9 -5 -27 -6q-18 -2 -26 -12q13 -12 60 -12q-18 -10 -22 -23v-2 q0 -9 8 -20q11 -9 26 -9t26 11q-3 -17 -3 -27q0 -25 10 -32q3 -3 7 -3q15 0 42 33q5 -56 10 -63q3 -3 6 -3q10 0 38 33q0 -47 35 -49q14 0 23 11q13 13 13 35q22 -28 40 -28q16 0 16 31v6q12 -17 26 -20q1 -3 2 -11l2 -7l1 -8q4 -24 5 -28q7 -32 19 -35l-10 -13 q-31 -27 -31 -46v-1q-5 -10 -5 -29q-2 -26 -3 -30q-4 -12 -19 -31q-18 -26 -21 -32q-6 -11 -9 -28q-23 -10 -45 -55q-9 -18 -14 -35q-11 -25 -11 -49v-6l-2 -3q-42 -8 -42 -32q0 -5 3 -14v-2q0 -7 -11 -28l-15 -34l-4 -17v-5q0 -6 3 -8h1l2 1l3 1l2 -3h2q1 0 4 3l2 -2h1 q4 0 8 7l2 3q0 1 2 1l7 16l18 19l25 42l20 49q14 23 28 44q-1 -2 9 9q12 12 30 32q7 6 13 12l8 10q66 75 93 142q25 24 34 64q49 97 49 143v3q0 12 -3 34q9 14 9 36l-2 19q-4 26 -20 45q-12 15 -25 15q-4 0 -5 -1v1l-2 -1q-5 7 -13 14q0 3 -6 15l-6 12v2q0 6 9 15q5 6 5 8v3 q-3 7 -12 7v5q0 4 -6 4l2 3v2q0 2 -2 2h-9q2 0 3 3v1q0 4 -3 5l-27 -3q8 4 12 13q-4 -7 -15 -12h-1l10 9l-12 -7l-2 2l13 9l-9 -6q3 5 3 9v2q0 -8 -12 -14h-1q-3 1 -6 1h-2q5 8 22 23l-27 -23v2h-3q-12 0 -25 -10q-13 -11 -13 -23q-32 77 -49 91q-3 3 -9 7q-25 78 -25 140 q0 42 12 77q39 138 233 143l4 17q-113 -1 -197 -63q56 100 123 134h-18q-48 -38 -101 -102q-104 -125 -126 -238q-10 22 -13 42l-2 12v20q0 88 56 176q93 80 95 114q-58 -13 -108 -80q-41 -57 -60 -118q4 36 34 108q30 66 32 105l-4 1q-28 0 -59 -96q-11 -37 -22 -81 q-5 -21 -8 -34q-4 -12 -5 -16v2q0 6 14 117q5 36 5 56q0 40 -14 46q-48 -76 -48 -249q-1 9 -3 24q-3 18 -8 39q-8 42 -9 65v10l1 7v8q2 20 2 30q0 39 -16 50q-33 -22 -33 -103q0 -70 25 -183q-4 20 -21 58q-18 49 -20 55q-33 80 -33 92v1h1q-5 2 -8 2q-13 0 -13 -36l2 -18 q4 -58 19 -108q-42 98 -77 116l1 2q8 0 36 -130q-5 3 -28 28q-17 21 -32 21h-2q-10 0 -10 -9q0 -7 6 -18q16 -23 24 -35h-5q-13 0 -29 8t-28 8q-6 0 -8 -2l-2 -9q0 -10 10 -21l2 -2l4 -2l8 -8q10 -8 12 -11q-51 -18 -55 -19l-1 -3q0 -10 38 -27q-4 -3 -15 -7l-10 -4 q-4 -2 -7 -4q-19 -10 -19 -24v-3z" />
<glyph unicode="&#xbb;" horiz-adv-x="1017" d="M0 301l250 399l-250 401h218l246 -401l-243 -399h-221zM401 1101h221l245 -401l-245 -399h-219l250 399z" />
<glyph unicode="&#xbc;" horiz-adv-x="851" d="M0 980q2 -17 30 -17q16 0 32 3q-20 -4 -35 -22q-14 -16 -14 -29q0 -4 1 -11q5 -9 16 -9q3 0 15 1q6 2 15 7q11 6 24 14q0 -11 -15 -29q-12 -16 -12 -30q1 -19 16 -21h3q14 0 29 15q-8 -67 -11 -67v2q12 5 25 24q16 22 25 28q-1 -5 -17 -39q-10 -19 -10 -32v-8q20 8 40 49 q-3 -18 -3 -27q0 -14 7 -14q13 0 45 30q-10 -27 -10 -43q0 -3 2 -6q0 2 40 44l-1 -5l-2 -8q-1 -10 -3 -19q-2 -7 -3 -14q-1 -5 -1 -8q0 -4 4 -4q7 0 30 30v-5q0 -16 7 -21q4 -3 9 -3t12 3q-6 -7 -12 -9q-9 -5 -27 -6q-18 -2 -26 -12q13 -12 60 -12q-18 -10 -22 -23v-2 q0 -9 8 -20q11 -9 26 -9t26 11q-3 -17 -3 -27q0 -25 10 -32q3 -3 7 -3q15 0 42 33q5 -56 10 -63q3 -3 6 -3q10 0 38 33q0 -47 35 -49q14 0 23 11q13 13 13 35q22 -28 40 -28q16 0 16 31v6q12 -17 26 -20q1 -3 2 -11l2 -7l1 -8q4 -24 5 -28q7 -32 19 -35l-10 -13 q-31 -27 -31 -46v-1q-5 -10 -5 -29q-2 -26 -3 -30q-4 -12 -19 -31q-18 -26 -21 -32q-6 -11 -9 -28q-23 -10 -45 -55q-9 -18 -14 -35q-11 -25 -11 -49v-6l-2 -3q-42 -8 -42 -32q0 -5 3 -14v-2q0 -7 -11 -28l-15 -34l-4 -17v-5q0 -6 3 -8h1l2 1l3 1l2 -3h2q1 0 4 3l2 -2h1 q4 0 8 7l2 3q0 1 2 1l7 16l18 19l25 42l20 49q14 23 28 44q-1 -2 9 9q12 12 30 32q7 6 13 12l8 10q66 75 93 142q25 24 34 64q49 97 49 143v3q0 12 -3 34q9 14 9 36l-2 19q-4 26 -20 45q-12 15 -25 15q-4 0 -5 -1v1l-2 -1q-5 7 -13 14q0 3 -6 15l-6 12v2q0 6 9 15q5 6 5 8v3 q-3 7 -12 7v5q0 4 -6 4l2 3v2q0 2 -2 2h-9q2 0 3 3v1q0 4 -3 5l-27 -3q8 4 12 13q-4 -7 -15 -12h-1l10 9l-12 -7l-2 2l13 9l-9 -6q3 5 3 9v2q0 -8 -12 -14h-1q-3 1 -6 1h-2q5 8 22 23l-27 -23v2h-3q-12 0 -25 -10q-13 -11 -13 -23q-32 77 -49 91q-3 3 -9 7q-25 78 -25 140 q0 42 12 77q39 138 233 143l4 17q-113 -1 -197 -63q56 100 123 134h-18q-48 -38 -101 -102q-104 -125 -126 -238q-10 22 -13 42l-2 12v20q0 88 56 176q93 80 95 114q-58 -13 -108 -80q-41 -57 -60 -118q4 36 34 108q30 66 32 105l-4 1q-28 0 -59 -96q-11 -37 -22 -81 q-5 -21 -8 -34q-4 -12 -5 -16v2q0 6 14 117q5 36 5 56q0 40 -14 46q-48 -76 -48 -249q-1 9 -3 24q-3 18 -8 39q-8 42 -9 65v10l1 7v8q2 20 2 30q0 39 -16 50q-33 -22 -33 -103q0 -70 25 -183q-4 20 -21 58q-18 49 -20 55q-33 80 -33 92v1h1q-5 2 -8 2q-13 0 -13 -36l2 -18 q4 -58 19 -108q-42 98 -77 116l1 2q8 0 36 -130q-5 3 -28 28q-17 21 -32 21h-2q-10 0 -10 -9q0 -7 6 -18q16 -23 24 -35h-5q-13 0 -29 8t-28 8q-6 0 -8 -2l-2 -9q0 -10 10 -21l2 -2l4 -2l8 -8q10 -8 12 -11q-51 -18 -55 -19l-1 -3q0 -10 38 -27q-4 -3 -15 -7l-10 -4 q-4 -2 -7 -4q-19 -10 -19 -24v-3z" />
<glyph unicode="&#xbd;" horiz-adv-x="851" d="M0 980q2 -17 30 -17q16 0 32 3q-20 -4 -35 -22q-14 -16 -14 -29q0 -4 1 -11q5 -9 16 -9q3 0 15 1q6 2 15 7q11 6 24 14q0 -11 -15 -29q-12 -16 -12 -30q1 -19 16 -21h3q14 0 29 15q-8 -67 -11 -67v2q12 5 25 24q16 22 25 28q-1 -5 -17 -39q-10 -19 -10 -32v-8q20 8 40 49 q-3 -18 -3 -27q0 -14 7 -14q13 0 45 30q-10 -27 -10 -43q0 -3 2 -6q0 2 40 44l-1 -5l-2 -8q-1 -10 -3 -19q-2 -7 -3 -14q-1 -5 -1 -8q0 -4 4 -4q7 0 30 30v-5q0 -16 7 -21q4 -3 9 -3t12 3q-6 -7 -12 -9q-9 -5 -27 -6q-18 -2 -26 -12q13 -12 60 -12q-18 -10 -22 -23v-2 q0 -9 8 -20q11 -9 26 -9t26 11q-3 -17 -3 -27q0 -25 10 -32q3 -3 7 -3q15 0 42 33q5 -56 10 -63q3 -3 6 -3q10 0 38 33q0 -47 35 -49q14 0 23 11q13 13 13 35q22 -28 40 -28q16 0 16 31v6q12 -17 26 -20q1 -3 2 -11l2 -7l1 -8q4 -24 5 -28q7 -32 19 -35l-10 -13 q-31 -27 -31 -46v-1q-5 -10 -5 -29q-2 -26 -3 -30q-4 -12 -19 -31q-18 -26 -21 -32q-6 -11 -9 -28q-23 -10 -45 -55q-9 -18 -14 -35q-11 -25 -11 -49v-6l-2 -3q-42 -8 -42 -32q0 -5 3 -14v-2q0 -7 -11 -28l-15 -34l-4 -17v-5q0 -6 3 -8h1l2 1l3 1l2 -3h2q1 0 4 3l2 -2h1 q4 0 8 7l2 3q0 1 2 1l7 16l18 19l25 42l20 49q14 23 28 44q-1 -2 9 9q12 12 30 32q7 6 13 12l8 10q66 75 93 142q25 24 34 64q49 97 49 143v3q0 12 -3 34q9 14 9 36l-2 19q-4 26 -20 45q-12 15 -25 15q-4 0 -5 -1v1l-2 -1q-5 7 -13 14q0 3 -6 15l-6 12v2q0 6 9 15q5 6 5 8v3 q-3 7 -12 7v5q0 4 -6 4l2 3v2q0 2 -2 2h-9q2 0 3 3v1q0 4 -3 5l-27 -3q8 4 12 13q-4 -7 -15 -12h-1l10 9l-12 -7l-2 2l13 9l-9 -6q3 5 3 9v2q0 -8 -12 -14h-1q-3 1 -6 1h-2q5 8 22 23l-27 -23v2h-3q-12 0 -25 -10q-13 -11 -13 -23q-32 77 -49 91q-3 3 -9 7q-25 78 -25 140 q0 42 12 77q39 138 233 143l4 17q-113 -1 -197 -63q56 100 123 134h-18q-48 -38 -101 -102q-104 -125 -126 -238q-10 22 -13 42l-2 12v20q0 88 56 176q93 80 95 114q-58 -13 -108 -80q-41 -57 -60 -118q4 36 34 108q30 66 32 105l-4 1q-28 0 -59 -96q-11 -37 -22 -81 q-5 -21 -8 -34q-4 -12 -5 -16v2q0 6 14 117q5 36 5 56q0 40 -14 46q-48 -76 -48 -249q-1 9 -3 24q-3 18 -8 39q-8 42 -9 65v10l1 7v8q2 20 2 30q0 39 -16 50q-33 -22 -33 -103q0 -70 25 -183q-4 20 -21 58q-18 49 -20 55q-33 80 -33 92v1h1q-5 2 -8 2q-13 0 -13 -36l2 -18 q4 -58 19 -108q-42 98 -77 116l1 2q8 0 36 -130q-5 3 -28 28q-17 21 -32 21h-2q-10 0 -10 -9q0 -7 6 -18q16 -23 24 -35h-5q-13 0 -29 8t-28 8q-6 0 -8 -2l-2 -9q0 -10 10 -21l2 -2l4 -2l8 -8q10 -8 12 -11q-51 -18 -55 -19l-1 -3q0 -10 38 -27q-4 -3 -15 -7l-10 -4 q-4 -2 -7 -4q-19 -10 -19 -24v-3z" />
<glyph unicode="&#xbe;" horiz-adv-x="851" d="M0 980q2 -17 30 -17q16 0 32 3q-20 -4 -35 -22q-14 -16 -14 -29q0 -4 1 -11q5 -9 16 -9q3 0 15 1q6 2 15 7q11 6 24 14q0 -11 -15 -29q-12 -16 -12 -30q1 -19 16 -21h3q14 0 29 15q-8 -67 -11 -67v2q12 5 25 24q16 22 25 28q-1 -5 -17 -39q-10 -19 -10 -32v-8q20 8 40 49 q-3 -18 -3 -27q0 -14 7 -14q13 0 45 30q-10 -27 -10 -43q0 -3 2 -6q0 2 40 44l-1 -5l-2 -8q-1 -10 -3 -19q-2 -7 -3 -14q-1 -5 -1 -8q0 -4 4 -4q7 0 30 30v-5q0 -16 7 -21q4 -3 9 -3t12 3q-6 -7 -12 -9q-9 -5 -27 -6q-18 -2 -26 -12q13 -12 60 -12q-18 -10 -22 -23v-2 q0 -9 8 -20q11 -9 26 -9t26 11q-3 -17 -3 -27q0 -25 10 -32q3 -3 7 -3q15 0 42 33q5 -56 10 -63q3 -3 6 -3q10 0 38 33q0 -47 35 -49q14 0 23 11q13 13 13 35q22 -28 40 -28q16 0 16 31v6q12 -17 26 -20q1 -3 2 -11l2 -7l1 -8q4 -24 5 -28q7 -32 19 -35l-10 -13 q-31 -27 -31 -46v-1q-5 -10 -5 -29q-2 -26 -3 -30q-4 -12 -19 -31q-18 -26 -21 -32q-6 -11 -9 -28q-23 -10 -45 -55q-9 -18 -14 -35q-11 -25 -11 -49v-6l-2 -3q-42 -8 -42 -32q0 -5 3 -14v-2q0 -7 -11 -28l-15 -34l-4 -17v-5q0 -6 3 -8h1l2 1l3 1l2 -3h2q1 0 4 3l2 -2h1 q4 0 8 7l2 3q0 1 2 1l7 16l18 19l25 42l20 49q14 23 28 44q-1 -2 9 9q12 12 30 32q7 6 13 12l8 10q66 75 93 142q25 24 34 64q49 97 49 143v3q0 12 -3 34q9 14 9 36l-2 19q-4 26 -20 45q-12 15 -25 15q-4 0 -5 -1v1l-2 -1q-5 7 -13 14q0 3 -6 15l-6 12v2q0 6 9 15q5 6 5 8v3 q-3 7 -12 7v5q0 4 -6 4l2 3v2q0 2 -2 2h-9q2 0 3 3v1q0 4 -3 5l-27 -3q8 4 12 13q-4 -7 -15 -12h-1l10 9l-12 -7l-2 2l13 9l-9 -6q3 5 3 9v2q0 -8 -12 -14h-1q-3 1 -6 1h-2q5 8 22 23l-27 -23v2h-3q-12 0 -25 -10q-13 -11 -13 -23q-32 77 -49 91q-3 3 -9 7q-25 78 -25 140 q0 42 12 77q39 138 233 143l4 17q-113 -1 -197 -63q56 100 123 134h-18q-48 -38 -101 -102q-104 -125 -126 -238q-10 22 -13 42l-2 12v20q0 88 56 176q93 80 95 114q-58 -13 -108 -80q-41 -57 -60 -118q4 36 34 108q30 66 32 105l-4 1q-28 0 -59 -96q-11 -37 -22 -81 q-5 -21 -8 -34q-4 -12 -5 -16v2q0 6 14 117q5 36 5 56q0 40 -14 46q-48 -76 -48 -249q-1 9 -3 24q-3 18 -8 39q-8 42 -9 65v10l1 7v8q2 20 2 30q0 39 -16 50q-33 -22 -33 -103q0 -70 25 -183q-4 20 -21 58q-18 49 -20 55q-33 80 -33 92v1h1q-5 2 -8 2q-13 0 -13 -36l2 -18 q4 -58 19 -108q-42 98 -77 116l1 2q8 0 36 -130q-5 3 -28 28q-17 21 -32 21h-2q-10 0 -10 -9q0 -7 6 -18q16 -23 24 -35h-5q-13 0 -29 8t-28 8q-6 0 -8 -2l-2 -9q0 -10 10 -21l2 -2l4 -2l8 -8q10 -8 12 -11q-51 -18 -55 -19l-1 -3q0 -10 38 -27q-4 -3 -15 -7l-10 -4 q-4 -2 -7 -4q-19 -10 -19 -24v-3z" />
<glyph unicode="&#xbf;" horiz-adv-x="1030" d="M0 429q0 176 93 296q104 132 282 132h179v141h306v-442h-434q-52 -3 -82 -41q-26 -35 -26 -87q0 -51 26 -88q30 -41 82 -41h434v-298h-485q-177 0 -281 134q-94 121 -94 294zM546 1095h315v302h-315v-302z" />
<glyph unicode="&#xc0;" d="M0 1l495 1321q18 39 54 63q36 23 80 23q43 0 81 -23q38 -24 55 -63l502 -1322h-322l-81 209h-463l-80 -208h-321zM309 1871l201 171l259 -348l4 -6q26 -31 22 -74q-3 -43 -37 -71q-31 -26 -74 -23q-43 2 -71 34zM516 512h230l-116 297z" />
<glyph unicode="&#xc1;" d="M0 1l495 1321q18 39 54 63q36 23 80 23q43 0 81 -23q38 -24 55 -63l502 -1322h-322l-81 209h-463l-80 -208h-321zM471 1614q-3 43 23 74l4 6l259 348l200 -171l-304 -317q-27 -32 -70 -34q-43 -3 -74 23q-34 28 -38 71zM516 512h230l-116 297z" />
<glyph unicode="&#xc2;" d="M0 1l495 1321q18 39 54 63q36 23 80 23q43 0 81 -23q38 -24 55 -63l502 -1322h-322l-81 209h-463l-80 -208h-321zM270 1519h275l87 152l90 -152h275l-244 372h-241zM516 512h230l-116 297z" />
<glyph unicode="&#xc3;" d="M0 1l495 1321q18 39 54 63q36 23 80 23q43 0 81 -23q38 -24 55 -63l502 -1322h-322l-81 209h-463l-80 -208h-321zM303 1591q7 6 15 12q6 4 12 7q13 7 28 11q77 23 175 -35q162 -95 342 -56q47 10 89 27v261q-43 -37 -103 -56q-117 -37 -226 27q-159 95 -305 62 q-6 -1 -12 -3l-8 -2t-7 -2v-253zM516 512h230l-116 297z" />
<glyph unicode="&#xc4;" d="M0 1l495 1321q18 39 54 63q36 23 80 23q43 0 81 -23q38 -24 55 -63l502 -1322h-322l-81 209h-463l-80 -208h-321zM228 1519v302h314v-302h-314zM516 512h230l-116 297zM725 1519v302h314v-302h-314z" />
<glyph unicode="&#xc5;" d="M0 1l495 1321q7 15 17 29q-5 4 -10 9q-55 55 -55 132t55 132t132 55t132 -55t55 -132t-55 -132q-7 -7 -15 -13q8 -12 14 -25l502 -1322h-322l-81 209h-463l-80 -208h-321zM516 512h230l-116 297zM563 1492q0 -29 21 -50t50 -21t50 21t21 50t-21 50t-50 21t-50 -21 t-21 -50z" />
<glyph unicode="&#xc6;" horiz-adv-x="2007" d="M0 0l912 1253q67 77 129 111.5t126 34.5h690v-300h-514v-257h415v-302h-415v-238h514v-300h-522q-6 0 -11 -1v-1h-310v307h-479l-223 -307h-312zM710 546h301l-1 413z" />
<glyph unicode="&#xc7;" horiz-adv-x="1174" d="M0 700q0 700 544 700h480v-302h-339q-362 2 -362 -328v-150q0 -321 362 -321h339v-299h-307v-28q16 -12 27 -23q68 -67 69 -163q0 -97 -67 -165q-68 -68 -164 -69t-165 67q-26 26 -44 60l142 84q5 -17 16 -28q21 -21 50 -20q29 0 49 20q20 21 20 50t-21 49q-18 18 -44 19 h-7v147h-34q-544 0 -544 700z" />
<glyph unicode="&#xc8;" horiz-adv-x="1088" d="M0 275v882q0 240 315 243h623v-301h-614v-251h515v-298h-515v-248h614v-302h-623q-315 0 -315 275zM145 1871l200 171l259 -348l4 -6q26 -31 23 -74q-4 -43 -37 -71q-32 -26 -75 -23q-43 2 -70 34z" />
<glyph unicode="&#xc9;" horiz-adv-x="1088" d="M0 275v882q0 240 315 243h623v-301h-614v-251h515v-298h-515v-248h614v-302h-623q-315 0 -315 275zM307 1614q-3 43 23 74l4 6l259 348l200 -171l-304 -317q-27 -32 -70 -34q-43 -3 -74 23q-34 28 -38 71z" />
<glyph unicode="&#xca;" horiz-adv-x="1088" d="M0 275v882q0 240 315 243h623v-301h-614v-251h515v-298h-515v-248h614v-302h-623q-315 0 -315 275zM105 1519h275l87 152l90 -152h275l-244 372h-241z" />
<glyph unicode="&#xcb;" horiz-adv-x="1088" d="M0 275v882q0 240 315 243h623v-301h-614v-251h515v-298h-515v-248h614v-302h-623q-315 0 -315 275zM110 1522v303h315v-303h-315zM607 1522v303h315v-303h-315z" />
<glyph unicode="&#xcc;" horiz-adv-x="467" d="M-156 1874l201 171l259 -348l3 -6q27 -31 23 -74t-37 -71q-31 -26 -74 -23q-43 2 -71 34zM0 -5v1402h317v-1402h-317z" />
<glyph unicode="&#xcd;" horiz-adv-x="467" d="M0 -5v1402h317v-1402h-317zM0 1617q-3 43 23 74l4 6l259 348l200 -171l-304 -317q-27 -32 -70 -34q-43 -3 -74 23q-34 28 -38 71z" />
<glyph unicode="&#xce;" horiz-adv-x="467" d="M-203 1522h275l87 152l90 -152h275l-244 372h-241zM0 -5v1402h317v-1402h-317z" />
<glyph unicode="&#xcf;" horiz-adv-x="467" d="M-248 1522v303h315v-303h-315zM0 -5v1402h317v-1402h-317zM249 1522v303h315v-303h-315z" />
<glyph unicode="&#xd0;" horiz-adv-x="1273" d="M-100 617h100v-617h624q495 1 495 697q0 701 -495 701l-624 -1v-616h-100v-164zM315 301v316h314v164h-314v317h261q211 0 217 -395q-6 -402 -217 -402h-261z" />
<glyph unicode="&#xd1;" horiz-adv-x="1241" d="M0 -1h314v745l494 -692q30 -41 78 -56q49 -16 97 0q49 16 78 57q30 41 30 92v1253h-314v-733l-493 691q-31 41 -79 56q-49 16 -97 0t-78 -57q-30 -42 -30 -92v-1264zM215 1591q7 6 15 12q6 4 12 7q13 7 28 11q77 23 175 -35q162 -95 342 -56q47 10 89 27v261 q-43 -37 -103 -56q-117 -37 -226 27q-159 95 -305 62q-6 -1 -12 -3l-8 -2t-7 -2v-253z" />
<glyph unicode="&#xd2;" horiz-adv-x="1377" d="M0 700q0 710 503 710h221q503 0 503 -710t-503 -710h-221q-503 0 -503 710zM289 1871l201 171l259 -348l4 -6q26 -31 22 -74q-3 -43 -37 -71q-31 -26 -74 -23q-43 2 -71 34zM323 610q0 -321 282 -321h17q282 0 282 321v170q0 326 -273 328h-35q-273 -2 -273 -328v-170z " />
<glyph unicode="&#xd3;" horiz-adv-x="1377" d="M0 700q0 710 503 710h221q503 0 503 -710t-503 -710h-221q-503 0 -503 710zM323 610q0 -321 282 -321h17q282 0 282 321v170q0 326 -273 328h-35q-273 -2 -273 -328v-170zM451 1614q-3 43 23 74l4 6l259 348l200 -171l-304 -317q-27 -32 -70 -34q-43 -3 -74 23 q-34 28 -38 71z" />
<glyph unicode="&#xd4;" horiz-adv-x="1377" d="M0 700q0 710 503 710h221q503 0 503 -710t-503 -710h-221q-503 0 -503 710zM250 1519h275l87 152l90 -152h275l-244 372h-241zM323 610q0 -321 282 -321h17q282 0 282 321v170q0 326 -273 328h-35q-273 -2 -273 -328v-170z" />
<glyph unicode="&#xd5;" horiz-adv-x="1377" d="M0 700q0 710 503 710h221q503 0 503 -710t-503 -710h-221q-503 0 -503 710zM283 1591q7 6 15 12q6 4 12 7q13 7 28 11q77 23 175 -35q162 -95 342 -56q47 10 89 27v261q-43 -37 -103 -56q-117 -37 -226 27q-159 95 -305 62q-6 -1 -12 -3l-8 -2t-7 -2v-253zM323 610 q0 -321 282 -321h17q282 0 282 321v170q0 326 -273 328h-35q-273 -2 -273 -328v-170z" />
<glyph unicode="&#xd6;" horiz-adv-x="1377" d="M0 700q0 710 503 710h221q503 0 503 -710t-503 -710h-221q-503 0 -503 710zM208 1519v302h314v-302h-314zM323 610q0 -321 282 -321h17q282 0 282 321v170q0 326 -273 328h-35q-273 -2 -273 -328v-170zM705 1519v302h314v-302h-314z" />
<glyph unicode="&#xd7;" horiz-adv-x="1165" d="M0 383l344 400l-314 370h316l164 -200l161 200h314l-315 -375l345 -395h-324l-184 219l-185 -219h-322z" />
<glyph unicode="&#xd8;" horiz-adv-x="1377" d="M-6 136l95 106q-89 171 -89 458q0 710 503 710h221q192 0 311 -117l83 92l121 -109l-103 -114q91 -172 91 -462q0 -710 -503 -710h-221q-195 0 -314 119l-74 -82zM323 610q0 -54 8 -99l483 536q-67 60 -183 61h-35q-273 -2 -273 -328v-170zM409 354q70 -65 196 -65h17 q282 0 282 321v170q0 62 -10 113z" />
<glyph unicode="&#xd9;" horiz-adv-x="1265" d="M0 592v808h324v-808q0 -301 235 -301q234 0 234 301v808h322v-808q0 -612 -556 -612q-559 0 -559 612zM233 1871l201 171l259 -348l4 -6q26 -31 22 -74q-3 -43 -37 -71q-31 -26 -74 -23q-43 2 -71 34z" />
<glyph unicode="&#xda;" horiz-adv-x="1265" d="M0 592v808h324v-808q0 -301 235 -301q234 0 234 301v808h322v-808q0 -612 -556 -612q-559 0 -559 612zM395 1614q-3 43 23 74l4 6l259 348l200 -171l-304 -317q-27 -32 -70 -34q-43 -3 -74 23q-34 28 -38 71z" />
<glyph unicode="&#xdb;" horiz-adv-x="1265" d="M0 592v808h324v-808q0 -301 235 -301q234 0 234 301v808h322v-808q0 -612 -556 -612q-559 0 -559 612zM194 1519h275l87 152l90 -152h275l-244 372h-241z" />
<glyph unicode="&#xdc;" horiz-adv-x="1265" d="M0 592v808h324v-808q0 -301 235 -301q234 0 234 301v808h322v-808q0 -612 -556 -612q-559 0 -559 612zM152 1519v302h314v-302h-314zM649 1519v302h314v-302h-314z" />
<glyph unicode="&#xdd;" horiz-adv-x="1129" d="M0 826q0 -255 268 -255h394v-267h-536v-306h631l5 2q217 0 214 222v1178h-314v-536h-360v536h-302v-574zM326 1614q-3 43 23 74l4 6l259 348l200 -171l-304 -317q-27 -32 -70 -34q-43 -3 -74 23q-34 28 -38 71z" />
<glyph unicode="&#xde;" horiz-adv-x="1074" d="M0 0h317v151h63q544 0 544 550t-544 550h-63v151h-317v-1402zM317 450v499h2q282 2 282 -278q0 -221 -282 -221h-2z" />
<glyph unicode="&#xdf;" horiz-adv-x="1166" d="M0 -2h305v918q0 187 121 187h179q49 0 78 -40q25 -37 25 -90q0 -124 -79 -123h-224v-300h224q79 0 79 -123q0 -53 -26 -89q-29 -41 -77 -41h-199v-297h248q168 0 268 141q90 123 90 297q0 75 -21 148q-20 72 -59 126q42 52 63 122t21 147q0 439 -513 439 q-503 0 -503 -439v-983z" />
<glyph unicode="&#xe0;" d="M0 1l495 1321q18 39 54 63q36 23 80 23q43 0 81 -23q38 -24 55 -63l502 -1322h-322l-81 209h-463l-80 -208h-321zM309 1871l201 171l259 -348l4 -6q26 -31 22 -74q-3 -43 -37 -71q-31 -26 -74 -23q-43 2 -71 34zM516 512h230l-116 297z" />
<glyph unicode="&#xe1;" d="M0 1l495 1321q18 39 54 63q36 23 80 23q43 0 81 -23q38 -24 55 -63l502 -1322h-322l-81 209h-463l-80 -208h-321zM471 1614q-3 43 23 74l4 6l259 348l200 -171l-304 -317q-27 -32 -70 -34q-43 -3 -74 23q-34 28 -38 71zM516 512h230l-116 297z" />
<glyph unicode="&#xe2;" d="M0 1l495 1321q18 39 54 63q36 23 80 23q43 0 81 -23q38 -24 55 -63l502 -1322h-322l-81 209h-463l-80 -208h-321zM270 1519h275l87 152l90 -152h275l-244 372h-241zM516 512h230l-116 297z" />
<glyph unicode="&#xe3;" d="M0 1l495 1321q18 39 54 63q36 23 80 23q43 0 81 -23q38 -24 55 -63l502 -1322h-322l-81 209h-463l-80 -208h-321zM303 1591q7 6 15 12q6 4 12 7q13 7 28 11q77 23 175 -35q162 -95 342 -56q47 10 89 27v261q-43 -37 -103 -56q-117 -37 -226 27q-159 95 -305 62 q-6 -1 -12 -3l-8 -2t-7 -2v-253zM516 512h230l-116 297z" />
<glyph unicode="&#xe4;" d="M0 1l495 1321q18 39 54 63q36 23 80 23q43 0 81 -23q38 -24 55 -63l502 -1322h-322l-81 209h-463l-80 -208h-321zM228 1519v302h314v-302h-314zM516 512h230l-116 297zM725 1519v302h314v-302h-314z" />
<glyph unicode="&#xe5;" d="M0 1l495 1321q7 15 17 29q-5 4 -10 9q-55 55 -55 132t55 132t132 55t132 -55t55 -132t-55 -132q-7 -7 -15 -13q8 -12 14 -25l502 -1322h-322l-81 209h-463l-80 -208h-321zM516 512h230l-116 297zM563 1492q0 -29 21 -50t50 -21t50 21t21 50t-21 50t-50 21t-50 -21 t-21 -50z" />
<glyph unicode="&#xe6;" horiz-adv-x="2007" d="M0 0l912 1253q67 77 129 111.5t126 34.5h690v-300h-514v-257h415v-302h-415v-238h514v-300h-522q-6 0 -11 -1v-1h-310v307h-479l-223 -307h-312zM710 546h301l-1 413z" />
<glyph unicode="&#xe7;" horiz-adv-x="1174" d="M0 700q0 700 544 700h480v-302h-339q-362 2 -362 -328v-150q0 -321 362 -321h339v-299h-307v-28q16 -12 27 -23q68 -67 69 -163q0 -97 -67 -165q-68 -68 -164 -69t-165 67q-26 26 -44 60l142 84q5 -17 16 -28q21 -21 50 -20q29 0 49 20q20 21 20 50t-21 49q-18 18 -44 19 h-7v147h-34q-544 0 -544 700z" />
<glyph unicode="&#xe8;" horiz-adv-x="1088" d="M0 275v882q0 240 315 243h623v-301h-614v-251h515v-298h-515v-248h614v-302h-623q-315 0 -315 275zM145 1871l200 171l259 -348l4 -6q26 -31 23 -74q-4 -43 -37 -71q-32 -26 -75 -23q-43 2 -70 34z" />
<glyph unicode="&#xe9;" horiz-adv-x="1088" d="M0 275v882q0 240 315 243h623v-301h-614v-251h515v-298h-515v-248h614v-302h-623q-315 0 -315 275zM307 1614q-3 43 23 74l4 6l259 348l200 -171l-304 -317q-27 -32 -70 -34q-43 -3 -74 23q-34 28 -38 71z" />
<glyph unicode="&#xea;" horiz-adv-x="1088" d="M0 275v882q0 240 315 243h623v-301h-614v-251h515v-298h-515v-248h614v-302h-623q-315 0 -315 275zM105 1519h275l87 152l90 -152h275l-244 372h-241z" />
<glyph unicode="&#xeb;" horiz-adv-x="1088" d="M0 275v882q0 240 315 243h623v-301h-614v-251h515v-298h-515v-248h614v-302h-623q-315 0 -315 275zM110 1522v303h315v-303h-315zM607 1522v303h315v-303h-315z" />
<glyph unicode="&#xec;" horiz-adv-x="467" d="M-156 1874l201 171l259 -348l3 -6q27 -31 23 -74t-37 -71q-31 -26 -74 -23q-43 2 -71 34zM0 -5v1402h317v-1402h-317z" />
<glyph unicode="&#xed;" horiz-adv-x="467" d="M0 -5v1402h317v-1402h-317zM0 1617q-3 43 23 74l4 6l259 348l200 -171l-304 -317q-27 -32 -70 -34q-43 -3 -74 23q-34 28 -38 71z" />
<glyph unicode="&#xee;" horiz-adv-x="467" d="M-203 1522h275l87 152l90 -152h275l-244 372h-241zM0 -5v1402h317v-1402h-317z" />
<glyph unicode="&#xef;" horiz-adv-x="467" d="M-248 1522v303h315v-303h-315zM0 -5v1402h317v-1402h-317zM249 1522v303h315v-303h-315z" />
<glyph unicode="&#xf0;" horiz-adv-x="1273" d="M-100 617h100v-617h624q495 1 495 697q0 701 -495 701l-624 -1v-616h-100v-164zM315 301v316h314v164h-314v317h261q211 0 217 -395q-6 -402 -217 -402h-261z" />
<glyph unicode="&#xf1;" horiz-adv-x="1241" d="M0 -1h314v745l494 -692q30 -41 78 -56q49 -16 97 0q49 16 78 57q30 41 30 92v1253h-314v-733l-493 691q-31 41 -79 56q-49 16 -97 0t-78 -57q-30 -42 -30 -92v-1264zM215 1591q7 6 15 12q6 4 12 7q13 7 28 11q77 23 175 -35q162 -95 342 -56q47 10 89 27v261 q-43 -37 -103 -56q-117 -37 -226 27q-159 95 -305 62q-6 -1 -12 -3l-8 -2t-7 -2v-253z" />
<glyph unicode="&#xf2;" horiz-adv-x="1377" d="M0 700q0 710 503 710h221q503 0 503 -710t-503 -710h-221q-503 0 -503 710zM289 1871l201 171l259 -348l4 -6q26 -31 22 -74q-3 -43 -37 -71q-31 -26 -74 -23q-43 2 -71 34zM323 610q0 -321 282 -321h17q282 0 282 321v170q0 326 -273 328h-35q-273 -2 -273 -328v-170z " />
<glyph unicode="&#xf3;" horiz-adv-x="1377" d="M0 700q0 710 503 710h221q503 0 503 -710t-503 -710h-221q-503 0 -503 710zM323 610q0 -321 282 -321h17q282 0 282 321v170q0 326 -273 328h-35q-273 -2 -273 -328v-170zM451 1614q-3 43 23 74l4 6l259 348l200 -171l-304 -317q-27 -32 -70 -34q-43 -3 -74 23 q-34 28 -38 71z" />
<glyph unicode="&#xf4;" horiz-adv-x="1377" d="M0 700q0 710 503 710h221q503 0 503 -710t-503 -710h-221q-503 0 -503 710zM250 1519h275l87 152l90 -152h275l-244 372h-241zM323 610q0 -321 282 -321h17q282 0 282 321v170q0 326 -273 328h-35q-273 -2 -273 -328v-170z" />
<glyph unicode="&#xf5;" horiz-adv-x="1377" d="M0 700q0 710 503 710h221q503 0 503 -710t-503 -710h-221q-503 0 -503 710zM283 1591q7 6 15 12q6 4 12 7q13 7 28 11q77 23 175 -35q162 -95 342 -56q47 10 89 27v261q-43 -37 -103 -56q-117 -37 -226 27q-159 95 -305 62q-6 -1 -12 -3l-8 -2t-7 -2v-253zM323 610 q0 -321 282 -321h17q282 0 282 321v170q0 326 -273 328h-35q-273 -2 -273 -328v-170z" />
<glyph unicode="&#xf6;" horiz-adv-x="1377" d="M0 700q0 710 503 710h221q503 0 503 -710t-503 -710h-221q-503 0 -503 710zM208 1519v302h314v-302h-314zM323 610q0 -321 282 -321h17q282 0 282 321v170q0 326 -273 328h-35q-273 -2 -273 -328v-170zM705 1519v302h314v-302h-314z" />
<glyph unicode="&#xf7;" horiz-adv-x="1146" d="M0 625v281h996v-281h-996zM309 410q0 74 51.5 126.5t125.5 52.5q73 0 124.5 -52.5t51.5 -126.5t-51.5 -126t-124.5 -52q-74 0 -125.5 52t-51.5 126zM309 1118q0 74 51.5 126.5t125.5 52.5q73 0 124.5 -52.5t51.5 -126.5t-51.5 -126t-124.5 -52q-74 0 -125.5 52t-51.5 126 z" />
<glyph unicode="&#xf8;" horiz-adv-x="1377" d="M-6 136l95 106q-89 171 -89 458q0 710 503 710h221q192 0 311 -117l83 92l121 -109l-103 -114q91 -172 91 -462q0 -710 -503 -710h-221q-195 0 -314 119l-74 -82zM323 610q0 -54 8 -99l483 536q-67 60 -183 61h-35q-273 -2 -273 -328v-170zM409 354q70 -65 196 -65h17 q282 0 282 321v170q0 62 -10 113z" />
<glyph unicode="&#xf9;" horiz-adv-x="1265" d="M0 592v808h324v-808q0 -301 235 -301q234 0 234 301v808h322v-808q0 -612 -556 -612q-559 0 -559 612zM233 1874l201 171l259 -348l3 -6q27 -31 23 -74t-37 -71q-31 -26 -74 -23q-43 2 -71 34z" />
<glyph unicode="&#xfa;" horiz-adv-x="1265" d="M0 592v808h324v-808q0 -301 235 -301q234 0 234 301v808h322v-808q0 -612 -556 -612q-559 0 -559 612zM396 1617q-3 43 23 74l4 6l259 348l200 -171l-304 -317q-27 -32 -70 -34q-43 -3 -74 23q-34 28 -38 71z" />
<glyph unicode="&#xfb;" horiz-adv-x="1265" d="M0 592v808h324v-808q0 -301 235 -301q234 0 234 301v808h322v-808q0 -612 -556 -612q-559 0 -559 612zM233 1871l201 171l259 -348l4 -6q26 -31 22 -74q-3 -43 -37 -71q-31 -26 -74 -23q-43 2 -71 34z" />
<glyph unicode="&#xfc;" horiz-adv-x="1265" d="M0 592v808h324v-808q0 -301 235 -301q234 0 234 301v808h322v-808q0 -612 -556 -612q-559 0 -559 612zM395 1614q-3 43 23 74l4 6l259 348l200 -171l-304 -317q-27 -32 -70 -34q-43 -3 -74 23q-34 28 -38 71z" />
<glyph unicode="&#xfd;" horiz-adv-x="1265" d="M0 592v808h324v-808q0 -301 235 -301q234 0 234 301v808h322v-808q0 -612 -556 -612q-559 0 -559 612zM194 1519h275l87 152l90 -152h275l-244 372h-241z" />
<glyph unicode="&#xfe;" horiz-adv-x="1074" d="M0 0h317v151h63q544 0 544 550t-544 550h-63v151h-317v-1402zM317 450v499h2q282 2 282 -278q0 -221 -282 -221h-2z" />
<glyph unicode="&#xff;" horiz-adv-x="1129" d="M0 826q0 -255 268 -255h394v-267h-536v-306h631l5 2q217 0 214 222v1178h-314v-536h-360v536h-302v-574zM326 1614q-3 43 23 74l4 6l259 348l200 -171l-304 -317q-27 -32 -70 -34q-43 -3 -74 23q-34 28 -38 71z" />
<glyph unicode="&#x152;" horiz-adv-x="1691" d="M0 698q0 702 503 702h1038v-301h-514v-251h415v-298h-415v-248h514v-302h-1038q-503 0 -503 698zM323 609q0 -307 282 -307h98v797h-107q-273 0 -273 -323v-167z" />
<glyph unicode="&#x153;" horiz-adv-x="1691" d="M0 698q0 702 503 702h1038v-301h-514v-251h415v-298h-415v-248h514v-302h-1038q-503 0 -503 698zM323 609q0 -307 282 -307h98v797h-107q-273 0 -273 -323v-167z" />
<glyph unicode="&#x178;" horiz-adv-x="1129" d="M0 826q0 -255 268 -255h394v-267h-536v-306h631l5 2q217 0 214 222v1178h-314v-536h-360v536h-302v-574zM82 1519v302h315v-302h-315zM579 1519v302h315v-302h-315z" />
<glyph unicode="&#x2c6;" horiz-adv-x="877" d="M0 1522h275l87 152l90 -152h275l-244 372h-241z" />
<glyph unicode="&#x2dc;" horiz-adv-x="811" d="M0 1594q7 6 15 12q6 4 12 7q13 7 28 11q77 23 175 -35q162 -95 342 -56q47 10 89 27v261q-43 -37 -103 -56q-117 -37 -226 27q-159 95 -305 62q-6 -1 -12 -3l-8 -2t-7 -2v-253z" />
<glyph unicode="&#x2000;" horiz-adv-x="1022" />
<glyph unicode="&#x2001;" horiz-adv-x="2045" />
<glyph unicode="&#x2002;" horiz-adv-x="1022" />
<glyph unicode="&#x2003;" horiz-adv-x="2045" />
<glyph unicode="&#x2004;" horiz-adv-x="681" />
<glyph unicode="&#x2005;" horiz-adv-x="511" />
<glyph unicode="&#x2006;" horiz-adv-x="340" />
<glyph unicode="&#x2007;" horiz-adv-x="340" />
<glyph unicode="&#x2008;" horiz-adv-x="255" />
<glyph unicode="&#x2009;" horiz-adv-x="409" />
<glyph unicode="&#x200a;" horiz-adv-x="113" />
<glyph unicode="&#x2010;" horiz-adv-x="744" d="M0 550v298h594v-298h-594z" />
<glyph unicode="&#x2011;" horiz-adv-x="744" d="M0 550v298h594v-298h-594z" />
<glyph unicode="&#x2012;" horiz-adv-x="744" d="M0 550v298h594v-298h-594z" />
<glyph unicode="&#x2013;" horiz-adv-x="954" d="M0 550v298h804v-298h-804z" />
<glyph unicode="&#x2014;" horiz-adv-x="1412" d="M0 550v298h1262v-298h-1262z" />
<glyph unicode="&#x2018;" horiz-adv-x="465" d="M0 917v302l196 180l43 -69l-73 -111h149v-302h-315z" />
<glyph unicode="&#x2019;" horiz-adv-x="465" d="M0 1096v302h315v-302l-196 -180l-43 69l73 111h-149z" />
<glyph unicode="&#x201a;" horiz-adv-x="465" d="M0 1v302h315v-302l-196 -180l-43 69l73 111h-149z" />
<glyph unicode="&#x201c;" horiz-adv-x="863" d="M0 915v303l196 179l43 -69l-73 -110h149v-303h-315zM398 915v303l196 179l43 -69l-73 -110h149v-303h-315z" />
<glyph unicode="&#x201d;" horiz-adv-x="863" d="M0 1095v302h315v-302l-196 -180l-43 69l73 111h-149zM398 1095v302h315v-302l-196 -180l-43 69l73 111h-149z" />
<glyph unicode="&#x201e;" horiz-adv-x="859" d="M0 1v302h315v-302l-196 -180l-43 69l73 111h-149zM394 1v302h315v-302l-196 -180l-43 69l73 111h-149z" />
<glyph unicode="&#x2022;" horiz-adv-x="851" d="M0 980q2 -17 30 -17q16 0 32 3q-20 -4 -35 -22q-14 -16 -14 -29q0 -4 1 -11q5 -9 16 -9q3 0 15 1q6 2 15 7q11 6 24 14q0 -11 -15 -29q-12 -16 -12 -30q1 -19 16 -21h3q14 0 29 15q-8 -67 -11 -67v2q12 5 25 24q16 22 25 28q-1 -5 -17 -39q-10 -19 -10 -32v-8q20 8 40 49 q-3 -18 -3 -27q0 -14 7 -14q13 0 45 30q-10 -27 -10 -43q0 -3 2 -6q0 2 40 44l-1 -5l-2 -8q-1 -10 -3 -19q-2 -7 -3 -14q-1 -5 -1 -8q0 -4 4 -4q7 0 30 30v-5q0 -16 7 -21q4 -3 9 -3t12 3q-6 -7 -12 -9q-9 -5 -27 -6q-18 -2 -26 -12q13 -12 60 -12q-18 -10 -22 -23v-2 q0 -9 8 -20q11 -9 26 -9t26 11q-3 -17 -3 -27q0 -25 10 -32q3 -3 7 -3q15 0 42 33q5 -56 10 -63q3 -3 6 -3q10 0 38 33q0 -47 35 -49q14 0 23 11q13 13 13 35q22 -28 40 -28q16 0 16 31v6q12 -17 26 -20q1 -3 2 -11l2 -7l1 -8q4 -24 5 -28q7 -32 19 -35l-10 -13 q-31 -27 -31 -46v-1q-5 -10 -5 -29q-2 -26 -3 -30q-4 -12 -19 -31q-18 -26 -21 -32q-6 -11 -9 -28q-23 -10 -45 -55q-9 -18 -14 -35q-11 -25 -11 -49v-6l-2 -3q-42 -8 -42 -32q0 -5 3 -14v-2q0 -7 -11 -28l-15 -34l-4 -17v-5q0 -6 3 -8h1l2 1l3 1l2 -3h2q1 0 4 3l2 -2h1 q4 0 8 7l2 3q0 1 2 1l7 16l18 19l25 42l20 49q14 23 28 44q-1 -2 9 9q12 12 30 32q7 6 13 12l8 10q66 75 93 142q25 24 34 64q49 97 49 143v3q0 12 -3 34q9 14 9 36l-2 19q-4 26 -20 45q-12 15 -25 15q-4 0 -5 -1v1l-2 -1q-5 7 -13 14q0 3 -6 15l-6 12v2q0 6 9 15q5 6 5 8v3 q-3 7 -12 7v5q0 4 -6 4l2 3v2q0 2 -2 2h-9q2 0 3 3v1q0 4 -3 5l-27 -3q8 4 12 13q-4 -7 -15 -12h-1l10 9l-12 -7l-2 2l13 9l-9 -6q3 5 3 9v2q0 -8 -12 -14h-1q-3 1 -6 1h-2q5 8 22 23l-27 -23v2h-3q-12 0 -25 -10q-13 -11 -13 -23q-32 77 -49 91q-3 3 -9 7q-25 78 -25 140 q0 42 12 77q39 138 233 143l4 17q-113 -1 -197 -63q56 100 123 134h-18q-48 -38 -101 -102q-104 -125 -126 -238q-10 22 -13 42l-2 12v20q0 88 56 176q93 80 95 114q-58 -13 -108 -80q-41 -57 -60 -118q4 36 34 108q30 66 32 105l-4 1q-28 0 -59 -96q-11 -37 -22 -81 q-5 -21 -8 -34q-4 -12 -5 -16v2q0 6 14 117q5 36 5 56q0 40 -14 46q-48 -76 -48 -249q-1 9 -3 24q-3 18 -8 39q-8 42 -9 65v10l1 7v8q2 20 2 30q0 39 -16 50q-33 -22 -33 -103q0 -70 25 -183q-4 20 -21 58q-18 49 -20 55q-33 80 -33 92v1h1q-5 2 -8 2q-13 0 -13 -36l2 -18 q4 -58 19 -108q-42 98 -77 116l1 2q8 0 36 -130q-5 3 -28 28q-17 21 -32 21h-2q-10 0 -10 -9q0 -7 6 -18q16 -23 24 -35h-5q-13 0 -29 8t-28 8q-6 0 -8 -2l-2 -9q0 -10 10 -21l2 -2l4 -2l8 -8q10 -8 12 -11q-51 -18 -55 -19l-1 -3q0 -10 38 -27q-4 -3 -15 -7l-10 -4 q-4 -2 -7 -4q-19 -10 -19 -24v-3z" />
<glyph unicode="&#x2026;" horiz-adv-x="851" d="M0 980q2 -17 30 -17q16 0 32 3q-20 -4 -35 -22q-14 -16 -14 -29q0 -4 1 -11q5 -9 16 -9q3 0 15 1q6 2 15 7q11 6 24 14q0 -11 -15 -29q-12 -16 -12 -30q1 -19 16 -21h3q14 0 29 15q-8 -67 -11 -67v2q12 5 25 24q16 22 25 28q-1 -5 -17 -39q-10 -19 -10 -32v-8q20 8 40 49 q-3 -18 -3 -27q0 -14 7 -14q13 0 45 30q-10 -27 -10 -43q0 -3 2 -6q0 2 40 44l-1 -5l-2 -8q-1 -10 -3 -19q-2 -7 -3 -14q-1 -5 -1 -8q0 -4 4 -4q7 0 30 30v-5q0 -16 7 -21q4 -3 9 -3t12 3q-6 -7 -12 -9q-9 -5 -27 -6q-18 -2 -26 -12q13 -12 60 -12q-18 -10 -22 -23v-2 q0 -9 8 -20q11 -9 26 -9t26 11q-3 -17 -3 -27q0 -25 10 -32q3 -3 7 -3q15 0 42 33q5 -56 10 -63q3 -3 6 -3q10 0 38 33q0 -47 35 -49q14 0 23 11q13 13 13 35q22 -28 40 -28q16 0 16 31v6q12 -17 26 -20q1 -3 2 -11l2 -7l1 -8q4 -24 5 -28q7 -32 19 -35l-10 -13 q-31 -27 -31 -46v-1q-5 -10 -5 -29q-2 -26 -3 -30q-4 -12 -19 -31q-18 -26 -21 -32q-6 -11 -9 -28q-23 -10 -45 -55q-9 -18 -14 -35q-11 -25 -11 -49v-6l-2 -3q-42 -8 -42 -32q0 -5 3 -14v-2q0 -7 -11 -28l-15 -34l-4 -17v-5q0 -6 3 -8h1l2 1l3 1l2 -3h2q1 0 4 3l2 -2h1 q4 0 8 7l2 3q0 1 2 1l7 16l18 19l25 42l20 49q14 23 28 44q-1 -2 9 9q12 12 30 32q7 6 13 12l8 10q66 75 93 142q25 24 34 64q49 97 49 143v3q0 12 -3 34q9 14 9 36l-2 19q-4 26 -20 45q-12 15 -25 15q-4 0 -5 -1v1l-2 -1q-5 7 -13 14q0 3 -6 15l-6 12v2q0 6 9 15q5 6 5 8v3 q-3 7 -12 7v5q0 4 -6 4l2 3v2q0 2 -2 2h-9q2 0 3 3v1q0 4 -3 5l-27 -3q8 4 12 13q-4 -7 -15 -12h-1l10 9l-12 -7l-2 2l13 9l-9 -6q3 5 3 9v2q0 -8 -12 -14h-1q-3 1 -6 1h-2q5 8 22 23l-27 -23v2h-3q-12 0 -25 -10q-13 -11 -13 -23q-32 77 -49 91q-3 3 -9 7q-25 78 -25 140 q0 42 12 77q39 138 233 143l4 17q-113 -1 -197 -63q56 100 123 134h-18q-48 -38 -101 -102q-104 -125 -126 -238q-10 22 -13 42l-2 12v20q0 88 56 176q93 80 95 114q-58 -13 -108 -80q-41 -57 -60 -118q4 36 34 108q30 66 32 105l-4 1q-28 0 -59 -96q-11 -37 -22 -81 q-5 -21 -8 -34q-4 -12 -5 -16v2q0 6 14 117q5 36 5 56q0 40 -14 46q-48 -76 -48 -249q-1 9 -3 24q-3 18 -8 39q-8 42 -9 65v10l1 7v8q2 20 2 30q0 39 -16 50q-33 -22 -33 -103q0 -70 25 -183q-4 20 -21 58q-18 49 -20 55q-33 80 -33 92v1h1q-5 2 -8 2q-13 0 -13 -36l2 -18 q4 -58 19 -108q-42 98 -77 116l1 2q8 0 36 -130q-5 3 -28 28q-17 21 -32 21h-2q-10 0 -10 -9q0 -7 6 -18q16 -23 24 -35h-5q-13 0 -29 8t-28 8q-6 0 -8 -2l-2 -9q0 -10 10 -21l2 -2l4 -2l8 -8q10 -8 12 -11q-51 -18 -55 -19l-1 -3q0 -10 38 -27q-4 -3 -15 -7l-10 -4 q-4 -2 -7 -4q-19 -10 -19 -24v-3z" />
<glyph unicode="&#x202f;" horiz-adv-x="409" />
<glyph unicode="&#x2039;" horiz-adv-x="616" d="M0 700l246 401h220l-252 -401l250 -399h-218z" />
<glyph unicode="&#x203a;" horiz-adv-x="616" d="M0 1101h221l245 -401l-245 -399h-219l250 399z" />
<glyph unicode="&#x205f;" horiz-adv-x="511" />
<glyph unicode="&#x20ac;" horiz-adv-x="1122" d="M-149 515v163h149v22q0 32 1 62h-150v163h166q79 475 527 475h380v-302h-239q-264 1 -335 -173h574v-163h-601v-84h601v-163h-589q53 -216 350 -216h239v-299h-380q-467 0 -533 515h-160z" />
<glyph unicode="&#x2122;" horiz-adv-x="851" d="M0 980q2 -17 30 -17q16 0 32 3q-20 -4 -35 -22q-14 -16 -14 -29q0 -4 1 -11q5 -9 16 -9q3 0 15 1q6 2 15 7q11 6 24 14q0 -11 -15 -29q-12 -16 -12 -30q1 -19 16 -21h3q14 0 29 15q-8 -67 -11 -67v2q12 5 25 24q16 22 25 28q-1 -5 -17 -39q-10 -19 -10 -32v-8q20 8 40 49 q-3 -18 -3 -27q0 -14 7 -14q13 0 45 30q-10 -27 -10 -43q0 -3 2 -6q0 2 40 44l-1 -5l-2 -8q-1 -10 -3 -19q-2 -7 -3 -14q-1 -5 -1 -8q0 -4 4 -4q7 0 30 30v-5q0 -16 7 -21q4 -3 9 -3t12 3q-6 -7 -12 -9q-9 -5 -27 -6q-18 -2 -26 -12q13 -12 60 -12q-18 -10 -22 -23v-2 q0 -9 8 -20q11 -9 26 -9t26 11q-3 -17 -3 -27q0 -25 10 -32q3 -3 7 -3q15 0 42 33q5 -56 10 -63q3 -3 6 -3q10 0 38 33q0 -47 35 -49q14 0 23 11q13 13 13 35q22 -28 40 -28q16 0 16 31v6q12 -17 26 -20q1 -3 2 -11l2 -7l1 -8q4 -24 5 -28q7 -32 19 -35l-10 -13 q-31 -27 -31 -46v-1q-5 -10 -5 -29q-2 -26 -3 -30q-4 -12 -19 -31q-18 -26 -21 -32q-6 -11 -9 -28q-23 -10 -45 -55q-9 -18 -14 -35q-11 -25 -11 -49v-6l-2 -3q-42 -8 -42 -32q0 -5 3 -14v-2q0 -7 -11 -28l-15 -34l-4 -17v-5q0 -6 3 -8h1l2 1l3 1l2 -3h2q1 0 4 3l2 -2h1 q4 0 8 7l2 3q0 1 2 1l7 16l18 19l25 42l20 49q14 23 28 44q-1 -2 9 9q12 12 30 32q7 6 13 12l8 10q66 75 93 142q25 24 34 64q49 97 49 143v3q0 12 -3 34q9 14 9 36l-2 19q-4 26 -20 45q-12 15 -25 15q-4 0 -5 -1v1l-2 -1q-5 7 -13 14q0 3 -6 15l-6 12v2q0 6 9 15q5 6 5 8v3 q-3 7 -12 7v5q0 4 -6 4l2 3v2q0 2 -2 2h-9q2 0 3 3v1q0 4 -3 5l-27 -3q8 4 12 13q-4 -7 -15 -12h-1l10 9l-12 -7l-2 2l13 9l-9 -6q3 5 3 9v2q0 -8 -12 -14h-1q-3 1 -6 1h-2q5 8 22 23l-27 -23v2h-3q-12 0 -25 -10q-13 -11 -13 -23q-32 77 -49 91q-3 3 -9 7q-25 78 -25 140 q0 42 12 77q39 138 233 143l4 17q-113 -1 -197 -63q56 100 123 134h-18q-48 -38 -101 -102q-104 -125 -126 -238q-10 22 -13 42l-2 12v20q0 88 56 176q93 80 95 114q-58 -13 -108 -80q-41 -57 -60 -118q4 36 34 108q30 66 32 105l-4 1q-28 0 -59 -96q-11 -37 -22 -81 q-5 -21 -8 -34q-4 -12 -5 -16v2q0 6 14 117q5 36 5 56q0 40 -14 46q-48 -76 -48 -249q-1 9 -3 24q-3 18 -8 39q-8 42 -9 65v10l1 7v8q2 20 2 30q0 39 -16 50q-33 -22 -33 -103q0 -70 25 -183q-4 20 -21 58q-18 49 -20 55q-33 80 -33 92v1h1q-5 2 -8 2q-13 0 -13 -36l2 -18 q4 -58 19 -108q-42 98 -77 116l1 2q8 0 36 -130q-5 3 -28 28q-17 21 -32 21h-2q-10 0 -10 -9q0 -7 6 -18q16 -23 24 -35h-5q-13 0 -29 8t-28 8q-6 0 -8 -2l-2 -9q0 -10 10 -21l2 -2l4 -2l8 -8q10 -8 12 -11q-51 -18 -55 -19l-1 -3q0 -10 38 -27q-4 -3 -15 -7l-10 -4 q-4 -2 -7 -4q-19 -10 -19 -24v-3z" />
<glyph unicode="&#x25fc;" horiz-adv-x="1400" d="M0 0v1400h1400v-1400h-1400z" />
</font>
</defs>
</svg>
